<?xml version="1.0" encoding="UTF-8"?>
<svg id="Layer_1" xmlns="http://www.w3.org/2000/svg" version="1.1" xmlns:xlink="http://www.w3.org/1999/xlink" viewBox="0 0 368.53 326.72">
  <!-- Generator: Adobe Illustrator 29.2.1, SVG Export Plug-In . SVG Version: 2.1.0 Build 116)  -->
  <defs>
    <style>
      .st0 {
        fill: #253b96;
      }

      .st1 {
        fill: #7b7692;
      }

      .st2 {
        fill: #fff;
      }

      .st3 {
        fill: none;
      }

      .st4 {
        fill: #263a96;
      }

      .st5 {
        clip-path: url(#clippath-1);
      }

      .st6 {
        fill: #ee372a;
      }

      .st7 {
        clip-path: url(#clippath-2);
      }

      .st8 {
        fill: #263b97;
      }

      .st9 {
        fill: #fec010;
      }

      .st10 {
        fill: #ee2d24;
      }

      .st11 {
        fill: #0d9347;
      }

      .st12 {
        clip-path: url(#clippath);
      }
    </style>
    <clipPath id="clippath">
      <rect class="st3" x="21.67" y="19.3" width="331.47" height="47.91"/>
    </clipPath>
    <clipPath id="clippath-1">
      <rect class="st3" x="21.67" y="19.3" width="331.47" height="47.91"/>
    </clipPath>
    <clipPath id="clippath-2">
      <rect class="st3" x="77.02" y="84.32" width="217.54" height="217.24"/>
    </clipPath>
  </defs>
  <rect class="st2" width="368.53" height="326.72"/>
  <g id="Artwork_10">
    <g class="st12">
      <path class="st1" d="M45.21,30.24v20.66h-.09l-7.23-20.66h-16.21v36.03h10.96v-20.8h.1l7.23,20.8h16.21V30.24h-10.97ZM62.8,66.26h13.52V30.24h-13.52v36.03ZM106.38,30.24v20.66h-.1l-7.23-20.66h-16.21v36.03h10.97v-20.8h.1l7.23,20.8h16.21V30.24h-10.96ZM121.27,30.24v9.79h8.59v26.24h13.52v-26.24h8.62v-9.79h-30.74ZM211.71,30.24v20.66h-.1l-7.23-20.66h-16.21v36.03h10.96v-20.8h.1l7.23,20.8h16.22V30.24h-10.97ZM156,30.23v36.03h27.17v-9.45h-13.86v-4.04h12.37v-9.24h-12.37v-3.77h13.43v-9.53h-26.75Z"/>
      <g class="st5">
        <path class="st0" d="M228.5,30.23h16.02c13.68,0,18,7.74,18,18.4s-6.7,17.64-17.19,17.64h-16.83V30.23h0ZM241.73,58.08h1.3c2.2,0,3.64-.67,4.5-2.11.9-1.48.99-4.23.99-7.74s-.09-6.21-.99-7.69c-.85-1.44-2.29-2.11-4.5-2.11h-1.3v19.66ZM283.71,29.28c11.79,0,17.64,7.74,17.64,18.94s-5.85,18.99-17.64,18.99-17.64-7.74-17.64-18.99,5.89-18.94,17.64-18.94M283.71,58.08c2.11,0,3.64-1.03,3.64-9.85s-1.44-9.81-3.64-9.81-3.64,1.21-3.64,9.81c0,8.82,1.58,9.85,3.64,9.85M307.69,58.67c-2.38,0-4.27,1.89-4.27,4.27s1.89,4.27,4.27,4.27,4.27-1.93,4.27-4.27-1.93-4.27-4.27-4.27M307.69,66.45c-1.98,0-3.55-1.57-3.55-3.51s1.57-3.51,3.55-3.51,3.51,1.57,3.51,3.51-1.57,3.51-3.51,3.51"/>
        <path class="st0" d="M306.97,65.28h-.99v-4.68h1.98c.81,0,1.66.27,1.66,1.21,0,.58-.4.99-.99,1.12.76.09.76.58.85,1.21.05.31.09.85.27,1.12h-1.12c-.09-.4-.14-.85-.18-1.26,0-.27-.09-.63-.4-.63h-1.08v1.89ZM306.97,62.62h.85c.45,0,.72-.23.72-.67,0-.4-.27-.58-.72-.58h-.85v1.26ZM39.97,66.26h16.21V30.24h-10.97v20.66h-.09l-7.23-20.66h-16.21v36.03h10.96v-20.8h.1l7.23,20.8ZM101.13,66.26h16.21V30.24h-10.96v20.66h-.1l-7.23-20.66h-16.21v36.03h10.97v-20.8h.1l7.23,20.8ZM206.46,66.26h16.22V30.24h-10.97v20.66h-.1l-7.23-20.66h-16.21v36.03h10.96v-20.8h.1l7.23,20.8ZM62.8,30.24h13.52v36.03h-13.52V30.24ZM129.86,40.02h-8.59v-9.79h30.74v9.79h-8.62v26.24h-13.52v-26.24ZM156,30.23h26.75v9.53h-13.44v3.77h12.37v9.24h-12.37v4.04h13.86v9.45h-27.17V30.23Z"/>
        <path class="st6" d="M325.55,25.46c-.72-.09-1.44-.04-2.38,0-5.71.27-8.01,2.7-8.82,5.44h.14c1.44-1.26,3.19-1.84,5.53-1.84,4.54,0,8.64,3.28,8.64,9.49s-4.5,10.48-10.62,10.48c-8.01,0-11.52-6.12-11.52-12.69,0-5.35,1.89-9.85,4.99-12.78,2.97-2.74,6.79-4.14,11.47-4.23,1.21-.09,1.98,0,2.56.05v6.07h0ZM317.95,43.23c1.85,0,2.97-1.89,2.97-4.32,0-2.02-.95-4.23-3.42-4.23-1.53,0-2.7.94-3.15,2.11-.18.36-.23.85-.23,1.71.14,2.29,1.26,4.72,3.78,4.72h.04ZM342.83,48.54v-6.43h-12.01v-5.17l9.63-17.19h9.63v16.42h3.06v5.94h-3.06v6.43h-7.24ZM342.83,36.17v-4.95c0-1.84.09-3.73.18-5.76h-.13c-.9,1.98-1.66,3.82-2.7,5.8l-2.34,4.81-.05.09h5.04Z"/>
      </g>
    </g>
  </g>
  <g id="Artwork_11">
    <g class="st7">
      <polygon class="st8" points="185.79 107.82 160.7 152.6 185.79 142.98 209.74 152.15 216.15 144.95 216.15 96.04 185.79 107.82"/>
      <polygon class="st4" points="263.74 137.9 263.74 220.26 218.42 155.48 185.79 167.98 185.79 301.56 218.42 287.76 218.42 209.56 263.74 268.7 294.56 255.76 294.56 126.02 263.74 137.9"/>
      <polygon class="st8" points="107.84 268.7 136.75 255.9 107.84 199.77 107.84 268.7"/>
      <path class="st11" d="M138.66,126.02l14.5,29.46,7.54-2.88,25.09-44.78-30.37-11.81-16.77,30.01ZM209.74,152.15l23.19-26.13,30.81,11.88v82.35l-45.32-64.77-8.68-3.33Z"/>
      <polygon class="st11" points="77.02 255.76 107.84 268.7 107.84 199.77 153.16 287.76 185.79 301.56 185.79 167.98 153.16 155.48 153.16 223.29 107.84 137.9 77.02 126.02 77.02 255.76"/>
      <path class="st10" d="M153.16,155.48v67.81l-45.32-85.39,30.82-11.88,14.5,29.46ZM263.74,268.7l-45.32-59.15v32.31l9.25,12.98,36.07,13.85Z"/>
      <path class="st9" d="M153.16,155.48l32.63,12.5,32.63-12.5-32.63-12.5-32.63,12.5ZM77.02,126.02l30.82,11.88,30.82-11.88-30.82-11.86-30.82,11.86ZM232.92,126.02l30.82,11.88,30.82-11.88-30.82-11.86-30.82,11.86ZM185.79,84.32l-30.37,11.69,30.37,11.81,30.36-11.77-30.36-11.73Z"/>
    </g>
  </g>
</svg>