<?xml version="1.0" encoding="UTF-8"?>
<svg id="Layer_1" xmlns="http://www.w3.org/2000/svg" version="1.1" viewBox="0 0 2499.73 361.31">
  <!-- Generator: Adobe Illustrator 29.2.1, SVG Export Plug-In . SVG Version: 2.1.0 Build 116)  -->
  <defs>
    <style>
      .st0 {
        fill: #0124a6;
      }

      .st1 {
        fill: #ff2d1e;
      }

      .st2 {
        fill: #7b7692;
      }
    </style>
  </defs>
  <path class="st2" d="M137.98,354.14h122.27V82.45h-82.73v155.8h-.71l-54.55-155.8H0v271.7h82.68v-156.83h.74l54.56,156.83ZM599.27,354.14h122.28V82.45h-82.69v155.8h-.74l-54.55-155.8h-122.27v271.7h82.71v-156.83h.72l54.53,156.83ZM1393.57,354.14h122.29V82.45h-82.71v155.8h-.74l-54.54-155.8h-122.28v271.7h82.69v-156.83h.73l54.55,156.83ZM310.2,82.45h101.98v271.7h-101.98V82.45ZM815.93,156.25h-64.81v-73.81h231.79v73.81h-65.03v197.89h-101.95v-197.89ZM1013.03,82.37h201.7v71.86h-101.32v28.42h93.29v69.65h-93.29v30.49h104.54v71.27h-204.92V82.37Z"/>
  <path class="st0" d="M1559.83,82.4h120.8c103.15,0,135.73,58.36,135.73,138.78s-50.56,133.01-129.62,133.01h-126.9V82.4h0ZM1659.59,292.43h9.84c16.63,0,27.49-5.09,33.93-15.95,6.79-11.2,7.46-31.89,7.46-58.36s-.68-46.83-7.46-58.02c-6.44-10.86-17.31-15.95-33.93-15.95h-9.84v148.28h0ZM1976.17,75.27c88.9,0,133.01,58.36,133.01,142.85s-44.11,143.19-133.01,143.19-133.01-58.36-133.01-143.19,44.45-142.85,133.01-142.85h0ZM1976.17,292.43c15.95,0,27.48-7.8,27.48-74.31s-10.85-73.97-27.48-73.97-27.48,9.16-27.48,73.97c0,66.51,11.88,74.31,27.48,74.31ZM2157.02,296.84c-17.98,0-32.23,14.25-32.23,32.23s14.25,32.23,32.23,32.23,32.23-14.59,32.23-32.23-14.59-32.23-32.23-32.23ZM2157.02,355.55c-14.93,0-26.8-11.88-26.8-26.47s11.88-26.47,26.8-26.47,26.47,11.88,26.47,26.47-11.88,26.47-26.47,26.47Z"/>
  <path class="st0" d="M2151.59,346.72h-7.46v-35.29h14.93c6.11,0,12.55,2.04,12.55,9.16,0,4.41-3.05,7.46-7.46,8.48,5.76.68,5.76,4.41,6.44,9.16.34,2.38.68,6.45,2.04,8.48h-8.48c-.68-3.05-1.02-6.45-1.36-9.5,0-2.04-.68-4.75-3.05-4.75h-8.14v14.25h0ZM2151.59,326.7h6.45c3.39,0,5.43-1.7,5.43-5.09,0-3.05-2.04-4.41-5.43-4.41h-6.45v9.5ZM137.98,354.14h122.27V82.45h-82.73v155.8h-.71l-54.55-155.8H0v271.7h82.68v-156.83h.74l54.56,156.83ZM599.27,354.14h122.28V82.45h-82.69v155.8h-.74l-54.55-155.8h-122.27v271.7h82.71v-156.83h.72l54.53,156.83ZM1393.57,354.14h122.29V82.45h-82.71v155.8h-.74l-54.54-155.8h-122.28v271.7h82.69v-156.83h.73l54.55,156.83ZM310.2,82.45h101.98v271.7h-101.98V82.45ZM815.93,156.25h-64.81v-73.81h231.79v73.81h-65.03v197.89h-101.95v-197.89ZM1013.03,82.37h201.7v71.86h-101.32v28.42h93.29v69.65h-93.29v30.49h104.54v71.27h-204.92V82.37Z"/>
  <path class="st1" d="M2291.73,46.43c-5.43-.68-10.86-.34-17.98,0-43.09,2.04-60.4,20.36-66.51,41.06h1.02c10.85-9.5,24.09-13.91,41.74-13.91,34.27,0,65.15,24.77,65.15,71.6s-33.93,79.06-80.08,79.06c-60.4,0-86.86-46.15-86.86-95.69,0-40.38,14.25-74.31,37.66-96.37,22.4-20.7,51.24-31.22,86.53-31.89,9.16-.68,14.93,0,19.34.34v45.8h0ZM2234.38,180.46c13.92,0,22.4-14.25,22.4-32.57,0-15.27-7.13-31.9-25.79-31.9-11.53,0-20.36,7.13-23.75,15.95-1.35,2.71-1.7,6.44-1.7,12.89,1.02,17.31,9.5,35.63,28.5,35.63h.34ZM2422.03,220.5v-48.52h-90.6v-39.02L2404.04,3.34h72.61v123.85h23.07v44.79h-23.07v48.52h-54.63ZM2422.03,127.19v-37.32c0-13.91.68-28.16,1.35-43.43h-1.02c-6.79,14.93-12.55,28.84-20.36,43.77l-17.64,36.31-.34.68h38.01Z"/>
</svg>