<?xml version="1.0" encoding="UTF-8"?>
<svg id="Layer_1" xmlns="http://www.w3.org/2000/svg" version="1.1" viewBox="0 0 1874.52 1871.98">
  <!-- Generator: Adobe Illustrator 29.2.1, SVG Export Plug-In . SVG Version: 2.1.0 Build 116)  -->
  <defs>
    <style>
      .st0 {
        fill: #fe2015;
      }

      .st1 {
        fill: #ffc001;
      }

      .st2 {
        fill: #011da9;
      }

      .st3 {
        fill: #069330;
      }

      .st4 {
        fill: #0222a9;
      }
    </style>
  </defs>
  <path class="st4" d="M937.26,202.51l-216.21,385.87,216.21-82.85,206.38,79.02,55.27-62.03V101.04l-261.65,101.46Z"/>
  <path class="st2" d="M1608.97,1588.86l-390.52-509.66v673.84l-281.19,118.94V720.94l281.19-107.68,390.52,558.16V461.77l265.55-102.41v1117.98l-265.55,111.53Z"/>
  <path class="st4" d="M265.55,1588.86l249.15-110.31-249.15-483.72v594.02Z"/>
  <path class="st3" d="M531.11,359.35l124.98,253.87,64.95-24.85,216.21-385.87-261.66-101.76-144.49,258.6ZM1143.64,584.55l199.86-225.19,265.47,102.41v709.65l-390.52-558.16-74.81-28.71Z"/>
  <path class="st3" d="M265.55,461.77L0,359.35v1117.98l265.55,111.53v-594.02l390.54,758.21,281.16,118.94V720.94l-281.16-107.72v584.34L265.55,461.77Z"/>
  <path class="st0" d="M656.09,613.23v584.34L265.55,461.77l265.56-102.41,124.98,253.87ZM1608.97,1588.86l-390.52-509.66v278.45l79.75,111.87,310.77,119.34Z"/>
  <path class="st1" d="M1218.45,613.23l-281.19,107.72-281.16-107.72,281.16-107.7,281.19,107.7ZM1343.39,359.35l265.57-102.16,265.55,102.16-265.55,102.41-265.57-102.41ZM0,359.35l265.55-102.16,265.56,102.16-265.56,102.41L0,359.35ZM1198.9,101.04L937.26,0l-261.66,100.75,261.66,101.76,261.65-101.46Z"/>
</svg>