<?xml version="1.0" encoding="UTF-8"?>
<svg id="Layer_1" xmlns="http://www.w3.org/2000/svg" version="1.1" viewBox="0 0 512 126.13">
  <!-- Generator: Adobe Illustrator 29.2.1, SVG Export Plug-In . SVG Version: 2.1.0 Build 116)  -->
  <defs>
    <style>
      .st0 {
        fill: #e60012;
      }
    </style>
  </defs>
  <g id="layer1">
    <path id="path29" class="st0" d="M66.97,126.13c-40.14-.01-66.97-28.46-66.97-62.95h0C0,28.69,26.88-.09,66.9,0h378.19c40.02-.09,66.9,28.69,66.9,63.18h0c0,34.49-26.82,62.94-66.97,62.95H66.97ZM67.09,15.52c-31.78.06-51.29,21.3-51.29,47.58h0c0,26.27,19.38,47.69,51.29,47.57h377.82c31.9.11,51.29-21.3,51.29-47.57h0c0-26.27-19.51-47.51-51.29-47.57H67.09ZM465.23,37.7c2.89,0,4.32.98,4.32,2.92,0,1.33-.83,2.34-2.21,2.69l2.26,4.52h-2.74l-1.94-4.15h-1.2v4.15h-2.47v-10.12h3.97ZM465.01,33.74c-5.05,0-9.14,4.09-9.14,9.14s4.09,9.14,9.14,9.14,9.14-4.09,9.14-9.14-4.09-9.14-9.14-9.14ZM472.4,42.88c0,4.08-3.31,7.39-7.39,7.39s-7.39-3.31-7.39-7.39,3.31-7.39,7.39-7.39,7.39,3.3,7.39,7.39ZM463.73,42.19h1.2c1.41,0,2.09-.43,2.09-1.43s-.73-1.51-2.21-1.51h-1.08v2.94ZM257.2,66.93c-.03-3.46.05-5.77,1.18-7.74,1.39-2.43,3.96-3.59,6.28-3.6h0c2.33.01,4.89,1.17,6.28,3.6,1.14,1.98,1.18,4.29,1.16,7.75h-14.9ZM272.03,78.84s.01.18.01,2.39c0,7.22-4.75,8.83-7.39,8.83s-7.47-1.6-7.47-8.83c0-2.16.01-8.15.01-8.15,0,0,33.64.01,33.64,0,0-12.25-11.82-22.39-26.35-22.39s-26.29,9.93-26.29,22.17,11.77,22.17,26.29,22.17c12.05,0,22.23-6.87,25.33-16.2h-17.79ZM328.22,51.34c6.68-.19,20.22,4.18,20.13,19.81-.01,2.77,0,21.49,0,21.49h-17.74v-25.93c0-3.44-3.29-7.27-8.16-7.27s-8.48,3.83-8.48,7.27c0,1.69.02,25.93.02,25.93h-17.73v-39.48s17.73-.01,17.73-.01c0,0-.02,3.18,0,4.15,3.41-3.26,8.34-5.79,14.23-5.96h0ZM183.1,51.34c6.68-.19,20.22,4.18,20.13,19.81-.01,2.77,0,21.49,0,21.49h-17.74v-25.93c0-3.44-3.29-7.27-8.16-7.27s-8.48,3.83-8.48,7.27c0,1.69.02,25.93.02,25.93h-17.73v-39.48s17.73-.01,17.73-.01c0,0-.02,3.18,0,4.15,3.41-3.26,8.33-5.79,14.23-5.96h0ZM386.83,33.28h17.62v59.38h-17.65s0-1.92,0-2.28c-6.83,4.29-14.54,4.28-20.55,1.48-1.61-.75-12.21-5.83-12.21-19.58,0-10.42,9.83-21.81,22.7-20.68,4.24.37,7.25,1.92,10.1,3.52-.01-9.14-.01-21.85-.01-21.85h0ZM386.95,72.71v-7.06c0-6.11-4.22-7.66-6.99-7.66s-7,1.56-7,7.66c0,2.03,0,7.04,0,7.04,0,0,0,4.92,0,7.02,0,6.1,4.16,7.7,7,7.7s7-1.6,7-7.7c0-2.54,0-7,0-7h0ZM443.53,72.6s0,5.97,0,8.36c0,6.3-3.72,8.89-7.3,8.89s-7.32-2.6-7.32-8.89c0-2.39,0-8.51,0-8.51,0,0,.01-5.84.01-8.23,0-6.27,3.74-8.85,7.3-8.85s7.3,2.58,7.3,8.85c0,2.39,0,6.82.01,8.4v-.02ZM436.36,50.47c-14.41,0-26.1,9.93-26.1,22.17s11.69,22.17,26.1,22.17,26.1-9.93,26.1-22.17-11.68-22.17-26.1-22.17ZM123.41,45.4v-12.14h17.9v12.14h-17.9ZM123.45,92.65v-39.49h17.85v39.49h-17.85ZM213.03,92.65v-39.41s-9.7,0-9.7,0v-5.86h9.72s-.01-8-.01-8h17.87v7.99h9.67v5.87h-9.67v39.41s-17.87,0-17.87,0ZM50.78,92.65v-59.38h18.51l25.59,41.41v-41.41s18.34,0,18.34,0v59.38h-18.33l-25.73-41.41v41.41h-18.39Z"/>
  </g>
</svg>