<?xml version="1.0" encoding="UTF-8"?>
<svg id="Layer_1" xmlns="http://www.w3.org/2000/svg" version="1.1" viewBox="0 0 497 382.47">
  <!-- Generator: Adobe Illustrator 29.2.1, SVG Export Plug-In . SVG Version: 2.1.0 Build 116)  -->
  <defs>
    <style>
      .st0, .st1 {
        fill: #a48252;
      }

      .st2 {
        fill: #fff;
      }

      .st3 {
        fill: none;
        stroke: #a48252;
        stroke-miterlimit: 10;
        stroke-width: 4px;
      }

      .st1 {
        font-family: Arial-BoldMT, Arial;
        font-size: 46.18px;
        font-weight: 700;
      }
    </style>
  </defs>
  <g>
    <g>
      <ellipse class="st2" cx="249.19" cy="189.33" rx="201.78" ry="141.11"/>
      <g>
        <path class="st0" d="M497,215.81l-24-25.38,22.67-32.29-36.67-16,12.33-35.67-41-4.33v-38l-41,8-8.67-38-35.33,17-13.67-37.33-35,22.67-21.67-34-26.36,26.11L220.08,0l-21.53,33.78-29.89-21.64-14.67,34.33-35.33-19-12,39.67-34.67-12-3.67,40.67-39,.33,9.67,41-35.67,10.67,22.33,38L0,213.14l31.33,17.33-10,41,39.67,1-6.33,38,38.67-1.67,5.67,37,43-17.33,12.67,39,36.33-21.67,20.67,34,31-28.67,29,31.33,25.67-37.33,30.33,25.67,20.11-35.67,37.89,14.33,6.67-40.67,40.67,12,3.33-45.33h36l-9.33-39,34-20.67ZM249.19,330.44c-111.44,0-201.78-63.18-201.78-141.11S137.76,48.22,249.19,48.22s201.78,63.18,201.78,141.11-90.34,141.11-201.78,141.11Z"/>
        <ellipse class="st3" cx="250.08" cy="189.33" rx="186" ry="126.33"/>
      </g>
    </g>
    <path id="path29" class="st0" d="M131.51,230.88c-24.95,0-41.62-17.81-41.62-39.4h0c0-21.59,16.71-39.6,41.58-39.54h235.05c24.87-.06,41.58,17.95,41.58,39.54h0c0,21.59-16.67,39.39-41.62,39.4h-234.97ZM131.59,161.65c-19.75.04-31.88,13.33-31.88,29.78h0c0,16.44,12.05,29.85,31.88,29.77h234.82c19.83.07,31.88-13.33,31.88-29.77h0c0-16.44-12.12-29.74-31.88-29.77h-234.82ZM377.47,177.91c1.19,0,1.79.41,1.79,1.21,0,.55-.34.97-.91,1.12l.94,1.88h-1.13l-.8-1.73h-.5v1.73h-1.02v-4.21h1.64ZM377.38,176.26c-2.08,0-3.78,1.7-3.78,3.8s1.69,3.8,3.78,3.8,3.78-1.7,3.78-3.8-1.69-3.8-3.78-3.8ZM380.43,180.07c0,1.7-1.37,3.08-3.05,3.08s-3.05-1.38-3.05-3.08,1.37-3.08,3.05-3.08,3.05,1.38,3.05,3.08ZM376.85,179.78h.5c.58,0,.86-.18.86-.6s-.3-.63-.91-.63h-.45v1.23ZM251.5,194.83c-.02-2.17.03-3.61.76-4.85.9-1.52,2.54-2.25,4.04-2.26h0c1.5,0,3.14.73,4.04,2.26.73,1.24.76,2.69.74,4.85h-9.58ZM261.04,202.28s0,.11,0,1.5c0,4.52-3.06,5.52-4.75,5.52s-4.81-1-4.81-5.52c0-1.35,0-5.1,0-5.1,0,0,21.63,0,21.63,0,0-7.66-7.6-14.01-16.94-14.01s-16.91,6.21-16.91,13.88,7.57,13.87,16.91,13.87c7.75,0,14.29-4.3,16.29-10.14h-11.44ZM297.17,185.07c4.29-.12,13,2.62,12.94,12.4,0,1.74,0,13.45,0,13.45h-11.41v-16.23c0-2.15-2.12-4.55-5.25-4.55s-5.45,2.4-5.45,4.55c0,1.06.01,16.23.01,16.23h-11.4v-24.71s11.4,0,11.4,0c0,0-.01,1.99,0,2.6,2.19-2.04,5.36-3.62,9.15-3.73h0ZM203.86,185.07c4.29-.12,13,2.62,12.94,12.4,0,1.74,0,13.45,0,13.45h-11.41v-16.23c0-2.15-2.12-4.55-5.25-4.55s-5.45,2.4-5.45,4.55c0,1.06.01,16.23.01,16.23h-11.4v-24.71s11.4,0,11.4,0c0,0-.01,1.99,0,2.6,2.19-2.04,5.36-3.62,9.15-3.73h0ZM334.86,173.76h11.33v37.16h-11.35s0-1.2,0-1.43c-4.39,2.69-9.35,2.68-13.21.93-1.04-.47-7.85-3.65-7.85-12.25,0-6.52,6.32-13.65,14.6-12.94,2.72.23,4.66,1.2,6.5,2.2,0-5.72,0-13.67,0-13.67h0ZM334.94,198.45v-4.42c0-3.82-2.71-4.8-4.49-4.8s-4.5.97-4.5,4.8c0,1.27,0,4.4,0,4.4,0,0,0,3.08,0,4.4,0,3.82,2.68,4.82,4.5,4.82s4.5-1,4.5-4.82c0-1.59,0-4.38,0-4.38h0ZM371.32,198.37s0,3.74,0,5.23c0,3.94-2.39,5.57-4.69,5.57s-4.7-1.63-4.7-5.57c0-1.5,0-5.33,0-5.33,0,0,0-3.66,0-5.15,0-3.92,2.4-5.54,4.69-5.54s4.69,1.61,4.69,5.54c0,1.5,0,4.27,0,5.26h0ZM366.71,184.53c-9.27,0-16.78,6.21-16.78,13.88s7.52,13.88,16.78,13.88,16.78-6.21,16.78-13.88-7.51-13.88-16.78-13.88ZM165.47,181.35v-7.6h11.51v7.6h-11.51ZM165.5,210.93v-24.71h11.48v24.71h-11.48ZM223.1,210.93v-24.66s-6.24,0-6.24,0v-3.67h6.25s0-5.01,0-5.01h11.49v5h6.22v3.68h-6.22v24.66s-11.49,0-11.49,0ZM118.77,210.93v-37.16h11.9l16.46,25.91v-25.91s11.8,0,11.8,0v37.16h-11.79l-16.54-25.91v25.91h-11.82Z"/>
  </g>
  <text class="st1" transform="translate(173.96 133.53) scale(.95 1)"><tspan x="0" y="0">Official</tspan></text>
  <g>
    <g>
      <path class="st0" d="M125.79,261.33l5.02-.53c.3,1.84.91,3.18,1.84,4.04.92.86,2.17,1.29,3.74,1.29,1.66,0,2.91-.38,3.75-1.15.84-.77,1.26-1.66,1.26-2.69,0-.66-.18-1.22-.53-1.68-.35-.46-.97-.86-1.85-1.21-.6-.23-1.98-.63-4.13-1.22-2.76-.75-4.7-1.66-5.82-2.75-1.57-1.53-2.35-3.4-2.35-5.6,0-1.42.37-2.74,1.11-3.98.74-1.23,1.8-2.17,3.19-2.82,1.39-.65,3.06-.97,5.02-.97,3.2,0,5.62.77,7.24,2.3s2.47,3.58,2.55,6.13l-5.16.25c-.22-1.43-.69-2.46-1.42-3.09-.73-.63-1.81-.94-3.27-.94s-2.67.33-3.52,1.01c-.55.43-.82,1.01-.82,1.73,0,.66.26,1.22.77,1.69.65.6,2.23,1.21,4.74,1.86,2.51.65,4.36,1.31,5.56,2,1.2.69,2.14,1.63,2.82,2.83s1.02,2.67,1.02,4.43c0,1.59-.41,3.09-1.22,4.48-.81,1.39-1.96,2.43-3.45,3.1-1.49.68-3.34,1.02-5.56,1.02-3.23,0-5.71-.81-7.44-2.44-1.73-1.63-2.76-4-3.1-7.11Z"/>
      <path class="st0" d="M161.56,263.97l4.88.89c-.63,1.95-1.62,3.43-2.97,4.45-1.35,1.02-3.05,1.53-5.08,1.53-3.22,0-5.6-1.15-7.14-3.44-1.22-1.83-1.83-4.15-1.83-6.95,0-3.34.8-5.96,2.4-7.85,1.6-1.89,3.63-2.84,6.08-2.84,2.75,0,4.92.99,6.51,2.97,1.59,1.98,2.35,5.02,2.28,9.1h-12.26c.03,1.58.43,2.81,1.18,3.69.75.88,1.7,1.32,2.82,1.32.77,0,1.41-.23,1.93-.68.52-.46.92-1.19,1.18-2.2ZM161.84,258.58c-.04-1.54-.4-2.72-1.1-3.52-.7-.8-1.54-1.21-2.54-1.21-1.07,0-1.95.42-2.65,1.27-.7.85-1.04,2-1.03,3.46h7.31Z"/>
      <path class="st0" d="M174.35,256.38l-4.44-.87c.5-1.95,1.36-3.39,2.58-4.33,1.22-.94,3.03-1.41,5.43-1.41,2.18,0,3.81.28,4.88.84s1.82,1.28,2.26,2.15c.44.87.65,2.46.65,4.78l-.05,6.23c0,1.77.08,3.08.24,3.92.16.84.45,1.74.88,2.71h-4.84c-.13-.35-.28-.88-.47-1.58-.08-.32-.14-.53-.17-.63-.84.89-1.73,1.55-2.68,1.99-.95.44-1.97.67-3.05.67-1.9,0-3.41-.56-4.5-1.69-1.1-1.13-1.65-2.55-1.65-4.27,0-1.14.25-2.15.75-3.05.5-.89,1.2-1.58,2.1-2.05s2.2-.89,3.89-1.24c2.29-.47,3.87-.9,4.75-1.31v-.53c0-1.02-.23-1.76-.7-2.19s-1.34-.66-2.63-.66c-.87,0-1.55.19-2.04.56-.49.37-.88,1.03-1.18,1.96ZM180.89,260.71c-.63.23-1.62.5-2.98.82-1.36.32-2.25.63-2.66.93-.64.49-.96,1.12-.96,1.88s.26,1.39.77,1.94c.51.54,1.16.82,1.95.82.88,0,1.72-.32,2.53-.95.59-.48.98-1.07,1.17-1.77.13-.46.19-1.32.19-2.6v-1.06Z"/>
      <path class="st0" d="M190.52,270.39v-27.84h4.89v27.84h-4.89Z"/>
      <path class="st0" d="M209.21,260.02c0-1.77.4-3.49,1.2-5.15s1.94-2.92,3.4-3.8c1.47-.87,3.11-1.31,4.92-1.31,2.8,0,5.09.99,6.88,2.97,1.79,1.98,2.68,4.48,2.68,7.51s-.9,5.58-2.71,7.59c-1.81,2.01-4.08,3.01-6.82,3.01-1.7,0-3.31-.42-4.85-1.25-1.54-.83-2.71-2.06-3.51-3.67s-1.2-3.58-1.2-5.9ZM214.23,260.31c0,2,.44,3.53,1.31,4.59.87,1.06,1.94,1.59,3.22,1.59s2.35-.53,3.21-1.59c.86-1.06,1.3-2.61,1.3-4.63s-.43-3.49-1.3-4.56c-.87-1.06-1.94-1.59-3.21-1.59s-2.35.53-3.22,1.59c-.87,1.06-1.31,2.6-1.31,4.6Z"/>
      <path class="st0" d="M229.99,250.23h2.72v-1.52c0-1.7.17-2.96.5-3.8.33-.83.94-1.52,1.83-2.04s2.01-.79,3.37-.79,2.76.23,4.09.68l-.66,3.72c-.78-.2-1.53-.3-2.25-.3s-1.22.18-1.52.54c-.31.36-.46,1.05-.46,2.08v1.42h3.66v4.2h-3.66v15.97h-4.89v-15.97h-2.72v-4.2Z"/>
      <path class="st0" d="M293.84,270.39v-3.02c-.67,1.08-1.56,1.92-2.66,2.54-1.1.62-2.26.93-3.47.93s-2.36-.3-3.34-.89c-.99-.59-1.7-1.43-2.14-2.51-.44-1.08-.66-2.56-.66-4.46v-12.76h4.89v9.27c0,2.83.09,4.57.27,5.21.18.64.51,1.15.98,1.52.48.37,1.08.56,1.81.56.84,0,1.58-.25,2.25-.75.66-.5,1.12-1.12,1.36-1.86.24-.74.37-2.55.37-5.44v-8.51h4.89v20.17h-4.54Z"/>
      <path class="st0" d="M307.11,256.38l-4.44-.87c.5-1.95,1.36-3.39,2.58-4.33,1.22-.94,3.03-1.41,5.43-1.41,2.18,0,3.81.28,4.88.84s1.82,1.28,2.26,2.15.65,2.46.65,4.78l-.05,6.23c0,1.77.08,3.08.24,3.92.16.84.45,1.74.88,2.71h-4.84c-.13-.35-.29-.88-.47-1.58-.08-.32-.14-.53-.17-.63-.84.89-1.73,1.55-2.68,1.99-.95.44-1.97.67-3.05.67-1.9,0-3.4-.56-4.5-1.69-1.1-1.13-1.65-2.55-1.65-4.27,0-1.14.25-2.15.75-3.05.5-.89,1.2-1.58,2.1-2.05.9-.47,2.2-.89,3.89-1.24,2.29-.47,3.87-.9,4.75-1.31v-.53c0-1.02-.23-1.76-.7-2.19-.46-.44-1.34-.66-2.63-.66-.87,0-1.55.19-2.04.56-.49.37-.88,1.03-1.18,1.96ZM313.66,260.71c-.63.23-1.62.5-2.98.82s-2.25.63-2.67.93c-.64.49-.96,1.12-.96,1.88s.26,1.39.77,1.94,1.16.82,1.95.82c.88,0,1.72-.32,2.53-.95.59-.48.98-1.07,1.17-1.77.13-.46.19-1.32.19-2.6v-1.06Z"/>
      <path class="st0" d="M323.29,270.39v-27.84h4.89v27.84h-4.89Z"/>
      <path class="st0" d="M333.2,247.49v-4.94h4.89v4.94h-4.89ZM333.2,270.39v-20.17h4.89v20.17h-4.89Z"/>
      <path class="st0" d="M351.59,250.23v4.25h-3.34v8.13c0,1.65.03,2.6.1,2.88.06.27.21.5.44.67.23.18.5.27.83.27.45,0,1.11-.17,1.97-.51l.42,4.14c-1.14.53-2.43.8-3.87.8-.88,0-1.68-.16-2.39-.48-.71-.32-1.23-.74-1.56-1.25-.33-.51-.56-1.21-.69-2.08-.1-.62-.16-1.87-.16-3.76v-8.79h-2.25v-4.25h2.25v-4.01l4.91-3.11v7.12h3.34Z"/>
      <path class="st0" d="M352.67,250.23h5.21l4.42,14.32,4.32-14.32h5.07l-6.53,19.41-1.17,3.51c-.43,1.18-.84,2.08-1.23,2.7-.39.62-.84,1.12-1.34,1.51-.5.39-1.13.69-1.86.9-.74.22-1.57.32-2.5.32s-1.86-.11-2.77-.32l-.44-4.18c.77.16,1.46.25,2.07.25,1.14,0,1.98-.36,2.53-1.09.54-.73.96-1.66,1.25-2.78l-7.04-20.22Z"/>
    </g>
    <path class="st0" d="M276.67,256.56c0-8.35-5.3-15.12-11.83-15.12s-11.83,6.77-11.83,15.12c0,7.5,4.27,13.71,9.88,14.9-.02.17-.04.33-.04.5v3.02c0,2.68.97,4.88,5.15,4.88h2.68v-3.08h-1.12c-2.74,0-3.19-1.36-3.19-3.02v-2.21c5.82-.96,10.31-7.29,10.31-14.98ZM257.42,256.56c0-5.7,3.32-10.31,7.42-10.31s7.42,4.62,7.42,10.31-3.32,10.31-7.42,10.31-7.42-4.62-7.42-10.31Z"/>
  </g>
</svg>