<?xml version="1.0" encoding="UTF-8"?>
<svg id="Layer_1" xmlns="http://www.w3.org/2000/svg" version="1.1" viewBox="0 0 22.54 33.09">
  <!-- Generator: Adobe Illustrator 29.2.1, SVG Export Plug-In . SVG Version: 2.1.0 Build 116)  -->
  <defs>
    <style>
      .st0 {
        fill: none;
        stroke: #fff;
        stroke-miterlimit: 10;
        stroke-width: .75px;
      }
    </style>
  </defs>
  <path class="st0" d="M20.09,19.49s2.07-1.12,2.07-2.93V7.35c0-1.2-.03-3.28-3.47-4.2S7.53.6,5.19.4,1.3,1.15.84,2.1"/>
  <path class="st0" d="M17.29,32.46l1.04.24c.21.05.43-.02.57-.19l1.3-1.51c.14-.13.22-.32.22-.51v-11.99"/>
  <path class="st0" d="M18.59,19.96v11.49c0,.68-.64,1.18-1.3,1.01l-14.81-3.67c-.47-.12-.79-.53-.79-1.01v-12"/>
  <path class="st0" d="M3.48,16.53c-.78-.32-1.49-.62-2.05-.88s-1.05-.67-1.05-1.3V3.04c0-.84.76-1.29,1.6-1.3,2.12-.01,4.65.19,8.43.97,4.52.93,6.8,1.74,8.97,2.67.58.25,1.05.67,1.05,1.3v11.98c0,.84-.76,1.29-1.6,1.3-1.14,0-2.71-.12-4.25-.31"/>
  <path class="st0" d="M2.22,4.57"/>
  <path class="st0" d="M11.51,23.17c0-.76-.03-3.39-.64-4.9-.72-1.78-.69-2.08-.69-3.69v-7.22"/>
  <path class="st0" d="M15.15,4.92s-.64,14.6-.7,15.32.01,3.07-2.94,3.14c-.91.02-2.25-.11-3.58-.53s-2.56-2.52-4.14-5.36c-1.87-3.36-1.91-12.67-1.52-12.69"/>
  <path class="st0" d="M3.72,1.78l-1.35,2.18c-.37.59-.05,1.37.62,1.55l7.02,1.8c.25.06.51.03.74-.09l5.65-2.98"/>
</svg>