<?xml version="1.0" encoding="UTF-8"?>
<svg id="Layer_1" xmlns="http://www.w3.org/2000/svg" version="1.1" xmlns:xlink="http://www.w3.org/1999/xlink" viewBox="0 0 322.87 464.82">
  <!-- Generator: Adobe Illustrator 29.2.1, SVG Export Plug-In . SVG Version: 2.1.0 Build 116)  -->
  <defs>
    <style>
      .st0 {
        fill: #fff;
      }

      .st1 {
        fill: none;
      }

      .st2 {
        clip-path: url(#clippath);
      }
    </style>
    <clipPath id="clippath">
      <rect class="st1" x="30.81" y="82.37" width="253.15" height="280.47" transform="translate(-54.1 50.57) rotate(-15.61)"/>
    </clipPath>
  </defs>
  <rect width="322.87" height="464.82"/>
  <rect class="st0" x="12.53" y="75.15" width="297.82" height="297.82"/>
  <g>
    <path class="st0" d="M40.3,13.79v7.98h-16.93v12.74h15.6v7.98h-15.6v14.98h17.47v8.08H12.87V13.79h27.43Z"/>
    <path class="st0" d="M54.58,13.79l7.85,37.66,8.84-37.66h10.37l-13.29,51.76h-12.31l-12.41-51.76h10.95Z"/>
    <path class="st0" d="M113.83,13.79v7.98h-16.93v12.74h15.6v7.98h-15.6v14.98h17.47v8.08h-27.98V13.79h27.43Z"/>
    <path class="st0" d="M138.47,13.79c4.6,0,8.01,1.12,10.23,3.36s3.33,5.69,3.33,10.36c0,3.69-.74,6.56-2.23,8.61-1.48,2.05-3.78,3.38-6.88,3.99,3.31.47,5.58,1.45,6.82,2.94,1.23,1.49,1.95,3.91,2.16,7.24l.51,8.89c.07,1.26.15,2.46.25,3.6.1,1.14.27,2.06.49,2.76h-10.3c-.43-1.05-.73-1.91-.88-2.57-.16-.67-.24-1.7-.24-3.1v-7.94c0-2.99-.57-5.03-1.7-6.14-1.13-1.11-3.28-1.66-6.43-1.66h-2.04v21.42h-10.57V13.79h17.47ZM131.57,36.16h2.45c3.04,0,5.05-.58,6.03-1.75.99-1.17,1.48-3.04,1.48-5.63s-.49-4.37-1.46-5.42c-.97-1.05-3.06-1.57-6.26-1.57h-2.24v14.38Z"/>
    <path class="st0" d="M164.71,13.79l7.51,21.87,8.02-21.87h10.71l-13.97,32.76v19h-10.67v-19l-13.09-32.76h11.49Z"/>
    <path class="st0" d="M201.14,64.82c-2.23-1.12-3.94-2.65-5.12-4.58-1.18-1.94-2.06-4.38-2.63-7.33-.58-2.95-.87-7.58-.87-13.88,0-7.42.58-12.89,1.73-16.41,1.16-3.52,3.02-6.1,5.59-7.73s5.91-2.45,10.01-2.45,7.31.63,9.7,1.89,4.13,3,5.2,5.23c1.08,2.23,1.79,4.72,2.13,7.49s.51,6.85.51,12.27c0,4.85-.11,8.47-.34,10.85s-.67,4.61-1.33,6.68c-.66,2.08-1.64,3.82-2.94,5.23-1.3,1.41-3.02,2.5-5.15,3.27s-4.78,1.15-7.95,1.15c-3.47,0-6.32-.56-8.55-1.68ZM203.23,40.53c0,5.55.2,9.45.6,11.69.4,2.24,1.07,3.9,2.01,4.97.94,1.07,2.28,1.61,4.03,1.61,2.45,0,4.13-.92,5.05-2.75.92-1.83,1.44-4.36,1.56-7.58.12-3.22.19-6.53.19-9.94v-4.93c0-4.71-.47-8.13-1.41-10.24-.94-2.11-2.71-3.17-5.32-3.17s-4.32,1.13-5.27,3.38-1.43,6.45-1.43,12.58v4.37Z"/>
    <path class="st0" d="M249.87,13.79l13.43,35.84V13.79h9.76v51.76h-13.8l-13.77-37.83v37.83h-9.76V13.79h14.14Z"/>
    <path class="st0" d="M309.46,13.79v7.98h-16.93v12.74h15.6v7.98h-15.6v14.98h17.47v8.08h-27.98V13.79h27.43Z"/>
  </g>
  <g id="Artwork_13">
    <g class="st2">
      <rect x="101.14" y="120.6" width="5.5" height="5.5" transform="translate(-29.36 32.51) rotate(-15.61)"/>
      <rect x="94.36" y="116.79" width="5.5" height="5.5" transform="translate(-28.59 30.55) rotate(-15.61)"/>
      <rect x="98.18" y="110.01" width="5.5" height="5.5" transform="translate(-26.62 31.32) rotate(-15.61)"/>
      <rect x="111.73" y="117.64" width="5.5" height="5.5" transform="translate(-28.18 35.25) rotate(-15.61)"/>
      <rect x="104.95" y="113.83" width="5.5" height="5.5" transform="translate(-27.4 33.29) rotate(-15.61)"/>
      <rect x="87.58" y="112.97" width="5.5" height="5.5" transform="translate(-27.81 28.58) rotate(-15.61)"/>
      <rect x="75.51" y="110.63" width="5.5" height="5.5" transform="translate(-27.63 25.25) rotate(-15.61)"/>
      <rect x="101.99" y="103.23" width="5.5" height="5.5" transform="translate(-24.66 32.1) rotate(-15.61)"/>
      <rect x="112.59" y="100.27" width="5.5" height="5.5" transform="translate(-23.47 34.84) rotate(-15.61)"/>
      <rect x="121.7" y="92.02" width="5.5" height="5.5" transform="translate(-20.91 36.99) rotate(-15.61)"/>
      <rect x="135.25" y="99.65" width="5.5" height="5.5" transform="translate(-22.47 40.92) rotate(-15.61)"/>
      <rect x="128.48" y="95.83" width="5.5" height="5.5" transform="translate(-21.69 38.95) rotate(-15.61)"/>
      <rect x="153.48" y="83.14" width="5.5" height="5.5" transform="translate(-17.35 45.21) rotate(-15.61)"/>
      <rect x="167.03" y="90.77" width="5.5" height="5.5" transform="translate(-18.9 49.14) rotate(-15.61)"/>
      <rect x="160.25" y="86.95" width="5.5" height="5.5" transform="translate(-18.13 47.18) rotate(-15.61)"/>
      <rect x="173.81" y="94.59" width="5.5" height="5.5" transform="translate(-19.68 51.11) rotate(-15.61)"/>
      <rect x="137.59" y="87.58" width="5.5" height="5.5" transform="translate(-19.13 41.1) rotate(-15.61)"/>
      <rect x="145.84" y="96.69" width="5.5" height="5.5" transform="translate(-21.28 43.66) rotate(-15.61)"/>
      <rect x="169.37" y="78.7" width="5.5" height="5.5" transform="translate(-15.57 49.33) rotate(-15.61)"/>
      <rect x="177.62" y="87.81" width="5.5" height="5.5" transform="translate(-17.72 51.88) rotate(-15.61)"/>
      <rect x="185.26" y="74.26" width="5.5" height="5.5" transform="translate(-13.79 53.44) rotate(-15.61)"/>
      <rect x="198.81" y="81.89" width="5.5" height="5.5" transform="translate(-15.34 57.37) rotate(-15.61)"/>
      <rect x="192.03" y="78.07" width="5.5" height="5.5" transform="translate(-14.56 55.4) rotate(-15.61)"/>
      <polygon points="207.91 97.14 209.39 102.44 214.68 100.96 219.98 99.48 221.46 104.77 216.16 106.25 210.87 107.73 212.35 113.03 217.64 111.55 219.12 116.85 213.83 118.33 215.31 123.62 216.79 128.92 222.08 127.44 223.56 132.73 228.86 131.25 230.34 136.55 235.64 135.07 234.16 129.77 232.68 124.48 227.38 125.96 225.9 120.66 224.42 115.37 222.94 110.07 228.24 108.59 226.76 103.29 225.28 98 223.8 92.7 218.5 94.18 213.2 95.66 211.72 90.36 210.24 85.07 204.95 86.55 206.43 91.84 207.91 97.14"/>
      <polygon points="231.2 119.18 232.68 124.48 237.97 123 236.49 117.7 241.79 116.22 240.31 110.92 235.01 112.4 233.53 107.11 228.24 108.59 229.72 113.88 231.2 119.18"/>
      <rect x="232.69" y="100.97" width="5.5" height="5.5" transform="translate(-19.23 67.19) rotate(-15.61)"/>
      <polygon points="244.75 126.81 250.05 125.33 248.57 120.04 243.27 121.52 237.97 123 239.45 128.29 244.75 126.81"/>
      <rect x="243.05" y="138.05" width="5.5" height="5.5" transform="translate(-28.82 71.35) rotate(-15.61)"/>
      <rect x="236.27" y="134.23" width="5.5" height="5.5" transform="translate(-28.05 69.38) rotate(-15.61)"/>
      <rect x="250.68" y="124.49" width="5.5" height="5.5" transform="translate(-24.89 72.9) rotate(-15.61)"/>
      <rect x="261.9" y="144.2" width="5.5" height="5.5" transform="translate(-29.78 76.65) rotate(-15.61)"/>
      <rect x="255.12" y="140.38" width="5.5" height="5.5" transform="translate(-29.01 74.68) rotate(-15.61)"/>
      <polygon points="50.49 146.84 55.79 145.36 54.31 140.06 59.61 138.58 58.13 133.28 52.83 134.76 47.53 136.24 49.01 141.54 43.72 143.02 38.42 144.5 39.9 149.8 45.2 148.32 50.49 146.84"/>
      <polygon points="68.72 130.32 67.24 125.03 61.94 126.51 56.65 127.99 58.13 133.28 63.42 131.8 68.72 130.32"/>
      <rect x="36.1" y="133.07" width="5.5" height="5.5" transform="translate(-35.12 15.47) rotate(-15.61)"/>
      <rect x="39.92" y="126.29" width="5.5" height="5.5" transform="translate(-33.15 16.24) rotate(-15.61)"/>
      <rect x="59.62" y="115.07" width="5.5" height="5.5" transform="translate(-29.41 21.13) rotate(-15.61)"/>
      <rect x="63.44" y="108.3" width="5.5" height="5.5" transform="translate(-27.44 21.91) rotate(-15.61)"/>
      <rect x="49.03" y="118.03" width="5.5" height="5.5" transform="translate(-30.6 18.39) rotate(-15.61)"/>
      <rect x="83.14" y="97.08" width="5.5" height="5.5" transform="translate(-23.7 26.8) rotate(-15.61)"/>
      <rect x="216.18" y="82.74" width="5.5" height="5.5" transform="translate(-14.93 62.07) rotate(-15.61)"/>
      <rect x="229.73" y="90.38" width="5.5" height="5.5" transform="translate(-16.49 66) rotate(-15.61)"/>
      <rect x="226.77" y="79.78" width="5.5" height="5.5" transform="translate(-13.74 64.82) rotate(-15.61)"/>
      <rect x="251.54" y="107.12" width="5.5" height="5.5" transform="translate(-20.19 72.49) rotate(-15.61)"/>
      <rect x="241.8" y="92.71" width="5.5" height="5.5" transform="translate(-16.67 69.34) rotate(-15.61)"/>
      <polygon points="240.08 150.96 241.56 156.26 246.85 154.78 245.37 149.48 243.89 144.18 238.6 145.66 240.08 150.96"/>
      <polygon points="44.96 188.35 39.67 189.83 41.15 195.13 46.44 193.65 51.74 192.17 50.26 186.87 48.78 181.57 43.48 183.05 44.96 188.35"/>
      <rect x="47.94" y="175.44" width="5.5" height="5.5" transform="translate(-46.08 20.22) rotate(-15.61)"/>
      <rect x="62.97" y="188.37" width="5.5" height="5.5" transform="translate(-49.01 24.74) rotate(-15.61)"/>
      <polygon points="61.48 206.58 60 201.28 65.29 199.8 63.81 194.5 58.52 195.98 53.22 197.46 54.7 202.76 56.18 208.06 57.66 213.35 62.96 211.87 61.48 206.58"/>
      <rect x="41.16" y="171.62" width="5.5" height="5.5" transform="translate(-45.31 18.25) rotate(-15.61)"/>
      <rect x="30.57" y="174.58" width="5.5" height="5.5" transform="translate(-46.5 15.51) rotate(-15.61)"/>
      <rect x="36.72" y="155.73" width="5.5" height="5.5" transform="translate(-41.2 16.47) rotate(-15.61)"/>
      <rect x="26.13" y="158.69" width="5.5" height="5.5" transform="translate(-42.38 13.73) rotate(-15.61)"/>
      <rect x="29.71" y="191.95" width="5.5" height="5.5" transform="translate(-51.2 15.92) rotate(-15.61)"/>
      <rect x="44.75" y="204.88" width="5.5" height="5.5" transform="translate(-54.13 20.44) rotate(-15.61)"/>
      <rect x="40.93" y="211.66" width="5.5" height="5.5" transform="translate(-56.09 19.67) rotate(-15.61)"/>
      <rect x="59.78" y="217.81" width="5.5" height="5.5" transform="translate(-57.05 24.97) rotate(-15.61)"/>
      <rect x="53" y="213.99" width="5.5" height="5.5" transform="translate(-56.27 23) rotate(-15.61)"/>
      <rect x="38.59" y="223.73" width="5.5" height="5.5" transform="translate(-59.43 19.48) rotate(-15.61)"/>
      <rect x="50.67" y="226.07" width="5.5" height="5.5" transform="translate(-59.61 22.82) rotate(-15.61)"/>
      <polygon points="63.58 234.54 58.28 236.02 52.99 237.5 47.69 238.98 49.17 244.28 54.47 242.8 59.76 241.32 61.24 246.61 66.54 245.13 65.06 239.84 63.58 234.54"/>
      <polygon points="81.57 258.06 80.09 252.77 74.8 254.25 73.32 248.95 71.84 243.65 66.54 245.13 68.02 250.43 69.5 255.73 70.98 261.02 76.28 259.54 81.57 258.06"/>
      <rect x="51.29" y="248.73" width="5.5" height="5.5" transform="translate(-65.69 23.82) rotate(-15.61)"/>
      <rect x="58.07" y="252.55" width="5.5" height="5.5" transform="translate(-66.46 25.79) rotate(-15.61)"/>
      <rect x="55.73" y="264.62" width="5.5" height="5.5" transform="translate(-69.8 25.6) rotate(-15.61)"/>
      <rect x="66.32" y="261.66" width="5.5" height="5.5" transform="translate(-68.61 28.34) rotate(-15.61)"/>
      <rect x="76.06" y="276.07" width="5.5" height="5.5" transform="translate(-72.13 31.5) rotate(-15.61)"/>
      <rect x="72.24" y="282.85" width="5.5" height="5.5" transform="translate(-74.09 30.72) rotate(-15.61)"/>
      <rect x="69.91" y="294.92" width="5.5" height="5.5" transform="translate(-77.43 30.54) rotate(-15.61)"/>
      <rect x="63.13" y="291.1" width="5.5" height="5.5" transform="translate(-76.65 28.57) rotate(-15.61)"/>
      <rect x="63.99" y="273.73" width="5.5" height="5.5" transform="translate(-71.95 28.16) rotate(-15.61)"/>
      <rect x="54.87" y="281.99" width="5.5" height="5.5" transform="translate(-74.5 26.01) rotate(-15.61)"/>
      <polygon points="86.64 296.62 85.16 291.32 83.68 286.02 78.38 287.5 79.86 292.8 81.34 298.1 82.82 303.39 88.12 301.91 93.41 300.43 91.93 295.14 86.64 296.62"/>
      <polygon points="84.3 308.69 79 310.17 73.71 311.65 75.19 316.95 80.48 315.47 81.96 320.76 87.26 319.28 85.78 313.99 84.3 308.69"/>
      <rect x="63.75" y="313.77" width="5.5" height="5.5" transform="translate(-82.73 29.58) rotate(-15.61)"/>
      <rect x="87.9" y="318.44" width="5.5" height="5.5" transform="translate(-83.1 36.25) rotate(-15.61)"/>
      <rect x="73.49" y="328.18" width="5.5" height="5.5" transform="translate(-86.25 32.73) rotate(-15.61)"/>
      <rect x="84.08" y="325.22" width="5.5" height="5.5" transform="translate(-85.06 35.47) rotate(-15.61)"/>
      <rect x="77.93" y="344.07" width="5.5" height="5.5" transform="translate(-90.36 34.51) rotate(-15.61)"/>
      <rect x="88.52" y="341.11" width="5.5" height="5.5" transform="translate(-89.17 37.25) rotate(-15.61)"/>
      <rect x="35.4" y="253.17" width="5.5" height="5.5" transform="translate(-67.47 19.71) rotate(-15.61)"/>
      <polygon points="113.51 351.92 112.03 346.62 106.73 348.1 101.44 349.58 96.14 351.06 97.62 356.36 102.92 354.88 108.21 353.4 109.69 358.69 114.99 357.21 120.29 355.73 118.81 350.44 113.51 351.92"/>
      <polygon points="127.06 359.55 132.36 358.07 130.88 352.77 125.58 354.25 120.29 355.73 121.77 361.03 127.06 359.55"/>
      <rect x="99.74" y="360.81" width="5.5" height="5.5" transform="translate(-94.06 41) rotate(-15.61)"/>
      <rect x="106.52" y="364.63" width="5.5" height="5.5" transform="translate(-94.84 42.96) rotate(-15.61)"/>
      <rect x="135.96" y="367.82" width="5.5" height="5.5" transform="translate(-94.61 51) rotate(-15.61)"/>
      <rect x="129.18" y="364.01" width="5.5" height="5.5" transform="translate(-93.84 49.04) rotate(-15.61)"/>
      <rect x="118.59" y="366.97" width="5.5" height="5.5" transform="translate(-95.02 46.3) rotate(-15.61)"/>
      <rect x="161.82" y="337.76" width="5.5" height="5.5" transform="translate(-85.57 56.85) rotate(-15.61)"/>
      <rect x="172.41" y="334.8" width="5.5" height="5.5" transform="translate(-84.38 59.59) rotate(-15.61)"/>
      <rect x="158" y="344.53" width="5.5" height="5.5" transform="translate(-87.53 56.08) rotate(-15.61)"/>
      <rect x="154.18" y="351.31" width="5.5" height="5.5" transform="translate(-89.5 55.3) rotate(-15.61)"/>
      <rect x="168.59" y="341.57" width="5.5" height="5.5" transform="translate(-86.34 58.82) rotate(-15.61)"/>
      <rect x="164.78" y="348.35" width="5.5" height="5.5" transform="translate(-88.31 58.04) rotate(-15.61)"/>
      <rect x="171.55" y="352.17" width="5.5" height="5.5" transform="translate(-89.09 60) rotate(-15.61)"/>
      <rect x="182.15" y="349.21" width="5.5" height="5.5" transform="translate(-87.9 62.75) rotate(-15.61)"/>
      <rect x="201.85" y="337.99" width="5.5" height="5.5" transform="translate(-84.15 67.64) rotate(-15.61)"/>
      <rect x="198.04" y="344.77" width="5.5" height="5.5" transform="translate(-86.12 66.86) rotate(-15.61)"/>
      <rect x="194.22" y="351.54" width="5.5" height="5.5" transform="translate(-88.08 66.08) rotate(-15.61)"/>
      <rect x="212.45" y="335.03" width="5.5" height="5.5" transform="translate(-82.97 70.38) rotate(-15.61)"/>
      <rect x="210.11" y="347.1" width="5.5" height="5.5" transform="translate(-86.3 70.19) rotate(-15.61)"/>
      <rect x="233.63" y="329.11" width="5.5" height="5.5" transform="translate(-80.59 75.86) rotate(-15.61)"/>
      <rect x="229.81" y="335.89" width="5.5" height="5.5" transform="translate(-82.56 75.08) rotate(-15.61)"/>
      <rect x="226" y="342.66" width="5.5" height="5.5" transform="translate(-84.52 74.31) rotate(-15.61)"/>
      <rect x="241.89" y="338.22" width="5.5" height="5.5" transform="translate(-82.74 78.42) rotate(-15.61)"/>
      <rect x="265.41" y="320.23" width="5.5" height="5.5" transform="translate(-77.03 84.09) rotate(-15.61)"/>
      <rect x="261.59" y="327" width="5.5" height="5.5" transform="translate(-78.99 83.31) rotate(-15.61)"/>
      <rect x="257.78" y="333.78" width="5.5" height="5.5" transform="translate(-80.96 82.53) rotate(-15.61)"/>
      <rect x="237.45" y="322.33" width="5.5" height="5.5" transform="translate(-78.63 76.64) rotate(-15.61)"/>
      <rect x="244.22" y="326.15" width="5.5" height="5.5" transform="translate(-79.4 78.6) rotate(-15.61)"/>
      <rect x="277.48" y="322.56" width="5.5" height="5.5" transform="translate(-77.21 87.42) rotate(-15.61)"/>
      <rect x="279.82" y="310.49" width="5.5" height="5.5" transform="translate(-73.88 87.6) rotate(-15.61)"/>
      <rect x="287.45" y="296.94" width="5.5" height="5.5" transform="translate(-69.95 89.16) rotate(-15.61)"/>
      <rect x="284.49" y="286.35" width="5.5" height="5.5" transform="translate(-67.21 87.97) rotate(-15.61)"/>
      <rect x="290.41" y="307.53" width="5.5" height="5.5" transform="translate(-72.69 90.35) rotate(-15.61)"/>
      <rect x="296.57" y="288.68" width="5.5" height="5.5" transform="translate(-67.39 91.31) rotate(-15.61)"/>
      <rect x="297.42" y="271.31" width="5.5" height="5.5" transform="translate(-62.68 90.9) rotate(-15.61)"/>
      <polygon points="274.12 272.78 275.6 278.08 277.08 283.37 278.56 288.67 283.85 287.19 282.37 281.89 287.67 280.41 286.19 275.11 280.89 276.59 279.41 271.3 274.12 272.78"/>
      <polygon points="271.78 284.85 270.3 279.55 268.82 274.26 274.12 272.78 272.64 267.48 271.16 262.19 265.86 263.67 267.34 268.96 262.04 270.44 263.52 275.74 258.23 277.22 259.71 282.51 261.19 287.81 266.48 286.33 267.96 291.63 262.67 293.11 264.15 298.4 269.44 296.92 274.74 295.44 276.22 300.74 270.92 302.22 265.63 303.7 267.11 309 268.59 314.29 270.07 319.59 275.36 318.11 273.88 312.81 272.4 307.52 277.7 306.04 283 304.56 281.52 299.26 280.04 293.96 278.56 288.67 273.26 290.15 271.78 284.85"/>
      <polygon points="290.01 268.34 288.53 263.04 283.23 264.52 277.93 266 279.41 271.3 284.71 269.82 290.01 268.34"/>
      <rect x="287.69" y="256.9" width="5.5" height="5.5" transform="translate(-59.16 87.74) rotate(-15.61)"/>
      <rect x="270.32" y="256.05" width="5.5" height="5.5" transform="translate(-59.57 83.04) rotate(-15.61)"/>
      <rect x="274.13" y="249.27" width="5.5" height="5.5" transform="translate(-57.61 83.81) rotate(-15.61)"/>
      <polygon points="268.2 251.59 273.49 250.11 272.01 244.82 270.53 239.52 265.24 241 266.72 246.3 268.2 251.59"/>
      <rect x="259.1" y="236.34" width="5.5" height="5.5" transform="translate(-54.69 79.29) rotate(-15.61)"/>
      <rect x="252.32" y="232.53" width="5.5" height="5.5" transform="translate(-53.91 77.33) rotate(-15.61)"/>
      <rect x="269.69" y="233.38" width="5.5" height="5.5" transform="translate(-53.5 82.03) rotate(-15.61)"/>
      <rect x="256.14" y="225.75" width="5.5" height="5.5" transform="translate(-51.94 78.1) rotate(-15.61)"/>
      <rect x="266.73" y="222.79" width="5.5" height="5.5" transform="translate(-50.76 80.85) rotate(-15.61)"/>
      <rect x="270.55" y="216.01" width="5.5" height="5.5" transform="translate(-48.79 81.62) rotate(-15.61)"/>
      <polygon points="244.05 246.92 245.53 252.22 250.83 250.74 252.31 256.03 253.79 261.33 255.27 266.63 256.75 271.92 262.04 270.44 260.56 265.15 265.86 263.67 264.38 258.37 269.68 256.89 268.2 251.59 262.9 253.07 257.6 254.55 256.12 249.26 261.42 247.78 259.94 242.48 254.64 243.96 253.16 238.66 247.87 240.14 249.35 245.44 244.05 246.92"/>
      <path d="M241.09,236.33l-5.3,1.48,1.48,5.3-5.3,1.48-1.48-5.3-5.3,1.48-1.48-5.3,5.3-1.48,1.48,5.3,5.3-1.48-1.48-5.3,5.3-1.48-1.48-5.3-5.3,1.48-5.3,1.48-5.3,1.48-5.3,1.48,1.48,5.3,1.48,5.3-5.3,1.48-5.3,1.48,1.48,5.3-5.3,1.48-5.3,1.48,1.48,5.3,5.3-1.48,1.48,5.3,5.3-1.48,5.3-1.48,5.3-1.48,5.3-1.48,5.3-1.48,5.3-1.48-1.48-5.3,5.3-1.48-1.48-5.3,5.3-1.48-1.48-5.3-1.48-5.3-5.3,1.48,1.48,5.3ZM221.39,247.54l5.3-1.48,1.48,5.3-5.3,1.48-1.48-5.3Z"/>
      <rect x="244.07" y="223.41" width="5.5" height="5.5" transform="translate(-51.76 74.77) rotate(-15.61)"/>
      <rect x="247.88" y="216.64" width="5.5" height="5.5" transform="translate(-49.8 75.55) rotate(-15.61)"/>
      <rect x="262.29" y="206.9" width="5.5" height="5.5" transform="translate(-46.64 79.06) rotate(-15.61)"/>
      <rect x="255.52" y="203.08" width="5.5" height="5.5" transform="translate(-45.87 77.1) rotate(-15.61)"/>
      <rect x="194.06" y="248.81" width="5.5" height="5.5" transform="translate(-60.44 62.25) rotate(-15.61)"/>
      <polygon points="194.9 254.94 189.61 256.42 188.13 251.13 182.83 252.61 184.31 257.9 179.01 259.38 180.49 264.68 175.2 266.16 173.72 260.86 179.01 259.38 177.53 254.09 182.83 252.61 181.35 247.31 186.65 245.83 188.13 251.13 193.42 249.65 191.94 244.35 190.46 239.05 185.17 240.53 179.87 242.01 174.57 243.49 176.05 248.79 170.76 250.27 169.28 244.97 163.98 246.45 158.68 247.93 160.16 253.23 165.46 251.75 166.94 257.05 161.64 258.53 163.12 263.82 164.6 269.12 166.08 274.42 171.38 272.94 176.68 271.46 181.97 269.98 187.27 268.5 192.57 267.02 197.86 265.54 203.16 264.06 201.68 258.76 196.38 260.24 194.9 254.94"/>
      <polygon points="202.54 241.39 207.83 239.91 213.13 238.43 211.65 233.13 206.35 234.61 201.06 236.09 195.76 237.57 197.24 242.87 198.72 248.17 204.02 246.69 202.54 241.39"/>
      <polygon points="233.69 209.84 235.17 215.14 236.65 220.44 238.13 225.73 243.43 224.25 241.95 218.96 247.24 217.48 245.76 212.18 240.47 213.66 238.99 208.36 237.51 203.07 232.21 204.55 233.69 209.84"/>
      <rect x="268.44" y="188.05" width="5.5" height="5.5" transform="translate(-41.34 80.03) rotate(-15.61)"/>
      <rect x="261.67" y="184.23" width="5.5" height="5.5" transform="translate(-40.57 78.06) rotate(-15.61)"/>
      <rect x="243.44" y="200.75" width="5.5" height="5.5" transform="translate(-45.68 73.76) rotate(-15.61)"/>
      <rect x="236.67" y="196.93" width="5.5" height="5.5" transform="translate(-44.91 71.8) rotate(-15.61)"/>
      <rect x="240.48" y="190.15" width="5.5" height="5.5" transform="translate(-42.94 72.58) rotate(-15.61)"/>
      <rect x="244.3" y="183.38" width="5.5" height="5.5" transform="translate(-40.98 73.35) rotate(-15.61)"/>
      <polygon points="227.77 188.66 229.25 193.96 230.73 199.25 236.03 197.77 234.55 192.48 239.84 191 238.36 185.7 233.07 187.18 231.59 181.88 226.29 183.36 227.77 188.66"/>
      <rect x="230.75" y="175.74" width="5.5" height="5.5" transform="translate(-39.42 69.43) rotate(-15.61)"/>
      <rect x="233.08" y="163.67" width="5.5" height="5.5" transform="translate(-36.09 69.61) rotate(-15.61)"/>
      <rect x="246.64" y="171.3" width="5.5" height="5.5" transform="translate(-37.64 73.54) rotate(-15.61)"/>
      <rect x="239.86" y="167.49" width="5.5" height="5.5" transform="translate(-36.86 71.57) rotate(-15.61)"/>
      <rect x="257.23" y="168.34" width="5.5" height="5.5" transform="translate(-36.45 76.28) rotate(-15.61)"/>
      <rect x="250.45" y="164.53" width="5.5" height="5.5" transform="translate(-35.68 74.31) rotate(-15.61)"/>
      <rect x="236.9" y="156.89" width="5.5" height="5.5" transform="translate(-34.12 70.39) rotate(-15.61)"/>
      <path d="M236.26,157.74l-1.48-5.3-5.3,1.48-1.48-5.3,5.3-1.48,5.3-1.48-1.48-5.3-5.3,1.48-1.48-5.3-5.3,1.48-1.48-5.3-5.3,1.48,1.48,5.3,1.48,5.3,1.48,5.3,1.48,5.3-5.3,1.48,1.48,5.3-5.3,1.48-1.48-5.3-5.3,1.48-5.3,1.48-5.3,1.48-5.3,1.48-5.3,1.48,1.48,5.3-5.3,1.48-1.48-5.3-5.3,1.48-5.3,1.48-5.3,1.48-5.3,1.48-5.3,1.48-5.3,1.48-5.3,1.48-5.3,1.48,1.48,5.3,1.48,5.3,1.48,5.3,5.3-1.48-1.48-5.3,5.3-1.48-1.48-5.3,5.3-1.48,1.48,5.3,5.3-1.48-1.48-5.3,5.3-1.48,1.48,5.3,5.3-1.48-1.48-5.3,5.3-1.48,1.48,5.3,5.3-1.48,5.3-1.48,1.48,5.3,1.48,5.3-5.3,1.48-1.48-5.3-5.3,1.48,1.48,5.3-5.3,1.48,1.48,5.3,5.3-1.48,5.3-1.48,5.3-1.48,5.3-1.48,5.3-1.48,5.3-1.48,5.3-1.48,5.3-1.48,5.3-1.48-1.48-5.3-5.3,1.48-1.48-5.3-5.3,1.48,1.48,5.3-5.3,1.48-1.48-5.3,5.3-1.48-1.48-5.3,5.3-1.48,1.48,5.3,5.3-1.48,1.48,5.3,5.3-1.48-1.48-5.3-1.48-5.3,5.3-1.48-1.48-5.3,5.3-1.48ZM203.63,183.99l-5.3,1.48-1.48-5.3,5.3-1.48,1.48,5.3ZM199.18,168.1l5.3-1.48,1.48,5.3-5.3,1.48-1.48-5.3Z"/>
      <rect x="247.49" y="153.93" width="5.5" height="5.5" transform="translate(-32.94 73.13) rotate(-15.61)"/>
      <rect x="174.82" y="179.95" width="5.5" height="5.5" transform="translate(-42.62 54.53) rotate(-15.61)"/>
      <rect x="164.23" y="182.91" width="5.5" height="5.5" transform="translate(-43.81 51.79) rotate(-15.61)"/>
      <polygon points="145.36 200.27 146.84 205.56 152.14 204.08 157.44 202.6 162.73 201.12 168.03 199.64 173.33 198.16 171.85 192.87 166.55 194.35 161.25 195.83 159.77 190.53 158.29 185.23 153 186.71 154.48 192.01 149.18 193.49 150.66 198.79 145.36 200.27"/>
      <path d="M261.81,310.48l-1.48-5.3,5.3-1.48-1.48-5.3-5.3,1.48-5.3,1.48-5.3,1.48-5.3,1.48-5.3,1.48,1.48,5.3-5.3,1.48-1.48-5.3-5.3,1.48,1.48,5.3-5.3,1.48-1.48-5.3-5.3,1.48-5.3,1.48-5.3,1.48-5.3,1.48-5.3,1.48-5.3,1.48-5.3,1.48,1.48,5.3-5.3,1.48-1.48-5.3-5.3,1.48-5.3,1.48-5.3,1.48-5.3,1.48-5.3,1.48-5.3,1.48-5.3,1.48-5.3,1.48-5.3,1.48,1.48,5.3-5.3,1.48-1.48-5.3-5.3,1.48-1.48-5.3-1.48-5.3-1.48-5.3-1.48-5.3-1.48-5.3-1.48-5.3-5.3,1.48-1.48-5.3,5.3-1.48-1.48-5.3-1.48-5.3-1.48-5.3-1.48-5.3-1.48-5.3-1.48-5.3-1.48-5.3-1.48-5.3-1.48-5.3-1.48-5.3-5.3,1.48-1.48-5.3,5.3-1.48-1.48-5.3-1.48-5.3-1.48-5.3-1.48-5.3-1.48-5.3-1.48-5.3-1.48-5.3-1.48-5.3-5.3,1.48-1.48-5.3,5.3-1.48-1.48-5.3-1.48-5.3-1.48-5.3-1.48-5.3-1.48-5.3-1.48-5.3-1.48-5.3-5.3,1.48-1.48-5.3,5.3-1.48-1.48-5.3,5.3-1.48-1.48-5.3,5.3-1.48,1.48,5.3,5.3-1.48,5.3-1.48,5.3-1.48,5.3-1.48,5.3-1.48,5.3-1.48,5.3-1.48,5.3-1.48,5.3-1.48-1.48-5.3,5.3-1.48,1.48,5.3,5.3-1.48,5.3-1.48,5.3-1.48,5.3-1.48,5.3-1.48,5.3-1.48,5.3-1.48-1.48-5.3,5.3-1.48,1.48,5.3,5.3-1.48-1.48-5.3,5.3-1.48,1.48,5.3,5.3-1.48,5.3-1.48,5.3-1.48,5.3-1.48,5.3-1.48-1.48-5.3-5.3,1.48-1.48-5.3-1.48-5.3-1.48-5.3-5.3,1.48-5.3,1.48-5.3,1.48,1.48,5.3,5.3-1.48,5.3-1.48,1.48,5.3,1.48,5.3-5.3,1.48-1.48-5.3-5.3,1.48-1.48-5.3-5.3,1.48,1.48,5.3-5.3,1.48-1.48-5.3-5.3,1.48,1.48,5.3-5.3,1.48-5.3,1.48-1.48-5.3,5.3-1.48,5.3-1.48-1.48-5.3-5.3,1.48-5.3,1.48-5.3,1.48,1.48,5.3-5.3,1.48-1.48-5.3-5.3,1.48,1.48,5.3-5.3,1.48-1.48-5.3-5.3,1.48-5.3,1.48-5.3,1.48-5.3,1.48,1.48,5.3,5.3-1.48,1.48,5.3-5.3,1.48,1.48,5.3-5.3,1.48-1.48-5.3-5.3,1.48,1.48,5.3-5.3,1.48-1.48-5.3-5.3,1.48,1.48,5.3-5.3,1.48-1.48-5.3,5.3-1.48-1.48-5.3-5.3,1.48-5.3,1.48,1.48,5.3,1.48,5.3-5.3,1.48-1.48-5.3-1.48-5.3,5.3-1.48-1.48-5.3-5.3,1.48-5.3,1.48,1.48,5.3,1.48,5.3-5.3,1.48-5.3,1.48,1.48,5.3-5.3,1.48,1.48,5.3-5.3,1.48-5.3,1.48-5.3,1.48,1.48,5.3-5.3,1.48,1.48,5.3,1.48,5.3,5.3-1.48-1.48-5.3,5.3-1.48-1.48-5.3,5.3-1.48,1.48,5.3,1.48,5.3-5.3,1.48-5.3,1.48,1.48,5.3,5.3-1.48,1.48,5.3-5.3,1.48,1.48,5.3,1.48,5.3,5.3-1.48-1.48-5.3,5.3-1.48-1.48-5.3-1.48-5.3,5.3-1.48,1.48,5.3,1.48,5.3-5.3,1.48,1.48,5.3,5.3-1.48,1.48,5.3-5.3,1.48,1.48,5.3-5.3,1.48,1.48,5.3,1.48,5.3-5.3,1.48,1.48,5.3,5.3-1.48,1.48,5.3-5.3,1.48,1.48,5.3-5.3,1.48,1.48,5.3,5.3-1.48,5.3-1.48-1.48-5.3,5.3-1.48,5.3-1.48,1.48,5.3-5.3,1.48,1.48,5.3-5.3,1.48-5.3,1.48,1.48,5.3,5.3-1.48,1.48,5.3,1.48,5.3,5.3-1.48,1.48,5.3-5.3,1.48,1.48,5.3,5.3-1.48,1.48,5.3-5.3,1.48-1.48-5.3-5.3,1.48-5.3,1.48,1.48,5.3,5.3-1.48,1.48,5.3,5.3-1.48,1.48,5.3-5.3,1.48,1.48,5.3,5.3-1.48,1.48,5.3,1.48,5.3,5.3-1.48-1.48-5.3,5.3-1.48,1.48,5.3-5.3,1.48,1.48,5.3-5.3,1.48,1.48,5.3,5.3-1.48,1.48,5.3-5.3,1.48-1.48-5.3-5.3,1.48,1.48,5.3,1.48,5.3,5.3-1.48,1.48,5.3-5.3,1.48,1.48,5.3,5.3-1.48,5.3-1.48,1.48,5.3,1.48,5.3-5.3,1.48-1.48-5.3-5.3,1.48-1.48-5.3-5.3,1.48,1.48,5.3,1.48,5.3,5.3-1.48,1.48,5.3,5.3-1.48,5.3-1.48,5.3-1.48,1.48,5.3,5.3-1.48,1.48,5.3,5.3-1.48,5.3-1.48,1.48,5.3,1.48,5.3,5.3-1.48,5.3-1.48-1.48-5.3-5.3,1.48-1.48-5.3-1.48-5.3,5.3-1.48,1.48,5.3,1.48,5.3,5.3-1.48,5.3-1.48-1.48-5.3-5.3,1.48-1.48-5.3,5.3-1.48,1.48,5.3,5.3-1.48-1.48-5.3,5.3-1.48,1.48,5.3,5.3-1.48-1.48-5.3,5.3-1.48,1.48,5.3,5.3-1.48,1.48,5.3-5.3,1.48,1.48,5.3,5.3-1.48,5.3-1.48-1.48-5.3-1.48-5.3,5.3-1.48-1.48-5.3,5.3-1.48,5.3-1.48,1.48,5.3-5.3,1.48-5.3,1.48,1.48,5.3,1.48,5.3,5.3-1.48-1.48-5.3,5.3-1.48,1.48,5.3,5.3-1.48-1.48-5.3,5.3-1.48,1.48,5.3,5.3-1.48,5.3-1.48,5.3-1.48-1.48-5.3-5.3,1.48-5.3,1.48-1.48-5.3,5.3-1.48,5.3-1.48,1.48,5.3,5.3-1.48-1.48-5.3,5.3-1.48,1.48,5.3,5.3-1.48-1.48-5.3,5.3-1.48-1.48-5.3,5.3-1.48,1.48,5.3,1.48,5.3-5.3,1.48-5.3,1.48,1.48,5.3,5.3-1.48,5.3-1.48,5.3-1.48-1.48-5.3-1.48-5.3ZM156.42,117.24l-5.3,1.48-1.48-5.3,5.3-1.48,1.48,5.3ZM145.83,120.2l-5.3,1.48-1.48-5.3,5.3-1.48,1.48,5.3ZM75.03,214.21l5.3-1.48,1.48,5.3-5.3,1.48-1.48-5.3ZM91.31,272.47l5.3-1.48,1.48,5.3-5.3,1.48-1.48-5.3ZM103.15,314.84l5.3-1.48,1.48,5.3-5.3,1.48-1.48-5.3ZM207.37,319.98l5.3-1.48,1.48,5.3-5.3,1.48-1.48-5.3Z"/>
    </g>
  </g>
  <path class="st0" d="M29.04,398.68c-.05.51-.08,1.02-.12,1.51-.26,4.76-1.91,8.43-7.56,8.43-8.36,0-8.88-5.09-8.88-12.07v-3.73c.21-6.69.76-11.6,8.88-11.6,4.52.05,7.06,2.29,7.41,6.75.08.64.15,1.36.1,1.99h-4.99c-.21-1.67-.05-4.82-2.52-4.82-4,0-3.68,4.59-3.68,6.65v7.2c0,2.18.19,5.66,3.68,5.66,2.77,0,2.47-4.29,2.56-5.98h5.12Z"/>
  <path class="st0" d="M32.85,392.83c.22-6.69.76-11.6,8.88-11.6s8.66,4.91,8.87,11.6v3.73c0,6.98-.54,12.07-8.87,12.07s-8.88-5.09-8.88-12.07v-3.73ZM38.06,399c0,2.18.18,5.66,3.67,5.66s3.65-3.57,3.65-6.09v-6.67c0-2.09.12-6.75-3.65-6.75-3.98,0-3.67,4.59-3.67,6.65v7.2Z"/>
  <path class="st0" d="M67.4,381.86h5.1v26.13h-5.31l-3.98-9.3c-1.31-3.11-2.41-6.27-3.61-10.39h-.07c.19,2.19.4,4.81.56,7.49.14,2.6.24,5.18.24,7.28v4.92h-5.07v-26.13h5.26l3.94,9.53c1.29,3.01,2.41,6.11,3.64,10.36h.06c-.18-2.35-.37-4.92-.51-7.42-.13-2.5-.25-5-.25-7.35v-5.11h0Z"/>
  <polygon class="st0" points="75.58 381.86 92.51 381.86 92.51 385.7 86.61 385.7 86.61 407.99 81.51 407.99 81.51 385.7 75.58 385.7 75.58 381.86"/>
  <polygon class="st0" points="95.4 407.99 95.4 381.86 109.71 381.86 109.71 385.7 100.49 385.7 100.49 392.29 109 392.29 109 396.13 100.49 396.13 100.49 404.16 109.71 404.16 109.71 407.99 95.4 407.99"/>
  <path class="st0" d="M125.85,381.86h5.07v26.13h-5.31l-3.94-9.3c-1.34-3.11-2.43-6.27-3.63-10.39h-.07c.19,2.19.4,4.81.56,7.49.16,2.6.25,5.18.25,7.28v4.92h-5.09v-26.13h5.25l3.96,9.53c1.32,3.01,2.39,6.11,3.64,10.36h.06c-.18-2.35-.37-4.92-.49-7.42-.14-2.5-.26-5-.26-7.35v-5.11h0Z"/>
  <polygon class="st0" points="134.02 381.86 150.95 381.86 150.95 385.7 145.03 385.7 145.03 407.99 139.95 407.99 139.95 385.7 134.02 385.7 134.02 381.86"/>
  <path class="st0" d="M168.09,396.73v11.26h-5.1v-26.13h9.61c4.4,0,7.7,1.45,7.7,6.25,0,2.87-.74,5.85-4.13,6.31v.09c3.01.38,3.91,2.21,3.91,4.75,0,1.05-.14,7.45,1.09,8.24v.48h-5.61c-.6-1.67-.49-4.9-.54-6.61-.02-1.61,0-3.79-1.74-4.29-1.39-.4-2.85-.36-4.3-.36h-.89ZM168.09,392.89h3.98c1.67-.09,2.96-1.1,2.96-3.78,0-2.92-1.28-3.4-3.17-3.41h-3.77v7.19Z"/>
  <path class="st0" d="M183.09,407.99l6.51-26.13h6.83l6.16,26.13h-5.42l-1.34-6.61h-5.95l-1.35,6.61h-5.44ZM190.67,397.55h4.35l-1.35-7.43c-.25-1.23-.34-2.38-.51-3.61-.05-.63-.1-1.21-.19-1.76h-.05c-.11.54-.13,1.13-.18,1.76-.19,1.23-.31,2.38-.54,3.61l-1.53,7.43Z"/>
  <polygon class="st0" points="203.57 381.86 220.5 381.86 220.5 385.7 214.59 385.7 214.59 407.99 209.49 407.99 209.49 385.7 203.57 385.7 203.57 381.86"/>
  <polygon class="st0" points="223.41 407.99 223.41 381.86 237.7 381.86 237.7 385.7 228.51 385.7 228.51 392.29 236.96 392.29 236.96 396.13 228.51 396.13 228.51 404.16 237.7 404.16 237.7 407.99 223.41 407.99"/>
  <path class="st0" d="M241.85,407.99v-26.13h10.57c1.24,0,3.72.5,5.27,2.93,1.15,1.83,1.46,4.74,1.46,9.03,0,5.18,0,11.14-4.14,13.51-1.13.59-2.5.66-3.78.66h-9.38ZM249.12,404.16c4.54,0,4.84-2.31,4.84-9.85,0-6.19-.67-8.6-3.7-8.6h-3.35v18.46h2.22Z"/>
  <path class="st0" d="M272.82,407.99v-26.13h8.18c2.19,0,4.36.1,5.77,1.91,1.16,1.42,1.35,2.92,1.35,4.68,0,2.28-.54,4.52-3.25,5.49v.07c2.82.4,3.94,2.69,3.94,6.09,0,1.08-.07,2.13-.37,3.19-1.08,3.33-3.06,4.71-6.65,4.71h-8.97ZM278.96,404.16c1.06,0,2.14.09,3.08-.27,1.36-.61,1.51-2.33,1.51-3.63,0-2.8-.57-4.02-3.69-4.02h-1.97v7.92h1.07ZM278.83,392.42c1.24,0,2.81.07,3.63-.94.46-.66.53-1.54.53-2.82,0-1.92-.43-2.89-2.77-2.95h-2.33v6.71h.92Z"/>
  <path class="st0" d="M299.48,388.7c.53,1.31.97,2.64,1.18,4.02h.08c.38-2.04,1.06-3.49,1.67-4.92l2.39-5.94h5.57l-7.19,15.02v11.11h-5.06v-11.11l-7.06-15.02h5.53l2.87,6.84Z"/>
  <polygon class="st0" points="13.38 454.33 13.38 415.7 68.21 415.7 68.21 424.75 35.4 424.75 35.4 430.26 63.17 430.26 63.17 439.27 35.4 439.27 35.4 445.32 69.49 445.32 69.49 454.33 13.38 454.33"/>
  <path class="st0" d="M124.62,426.93c-.34-1.3-1.57-2.14-3.17-2.62-1.56-.49-3.52-.72-5.69-.72-4.84,0-7.02.83-7.02,2.23,0,5.77,38.67,2.19,38.67,16.21,0,8.95-12.99,13.3-31.46,13.3s-29.32-5.94-29.78-12.91h21.1c.46,1.39,1.78,2.41,3.66,3.04,1.75.66,4.07.99,6.25.99,5.51,0,9.17-1.03,9.17-2.85,0-5.85-38.69-1.84-38.69-16.57,0-8.22,12.34-12.34,29.16-12.34,18.66,0,27.16,5.49,28.77,12.23h-20.94Z"/>
  <path class="st0" d="M187.61,440.89v13.44h-22.04v-38.63h31.74c22.4,0,29.79,3.52,29.79,11.02,0,4.46-3.44,8.17-11.27,9.45,7.08,1.51,11.39,2.44,11.39,10.22,0,5.04-.32,6.76,2.31,6.76v1.17h-22.34c-.56-.86-1.1-3.33-1.1-6.75,0-5.06-1.51-6.69-11.77-6.69h-6.71ZM187.61,432.42h8.66c6.84,0,10.47-1.01,10.47-3.67s-3.7-4.01-8.87-4.01h-10.25v7.68Z"/>
  <path class="st0" d="M248.61,454.33v-38.63h32.12c15.15,0,27.18,2.07,27.18,9.73,0,3.98-4.49,6.88-8.79,8.39,7.29,1.08,11.19,4.7,11.19,8.86,0,8.64-11.46,11.65-28.95,11.65h-32.75ZM270.63,438.2v7.12h9.61c5.44,0,9.53-.66,9.53-3.54,0-3.37-5.11-3.57-12.14-3.57h-7ZM270.63,424.75v6.44h9.17c4.37,0,7.57-1.15,7.57-3.38,0-3.01-4.34-3.06-8.98-3.06h-7.77Z"/>
</svg>