<?xml version="1.0" encoding="UTF-8"?>
<svg id="Layer_1" xmlns="http://www.w3.org/2000/svg" version="1.1" viewBox="0 0 322.87 464.82">
  <!-- Generator: Adobe Illustrator 29.2.1, SVG Export Plug-In . SVG Version: 2.1.0 Build 116)  -->
  <defs>
    <style>
      .st0 {
        fill: #fff;
      }

      .st1 {
        fill: #010101;
      }
    </style>
  </defs>
  <rect width="322.87" height="464.82"/>
  <rect class="st0" x="12.53" y="75.15" width="297.82" height="297.82"/>
  <g>
    <path class="st0" d="M40.24,14.06v7.98h-16.94v12.74h15.61v7.98h-15.61v14.99h17.48v8.09H12.8V14.06h27.44Z"/>
    <path class="st0" d="M54.53,14.06l7.86,37.68,8.84-37.68h10.37l-13.3,51.79h-12.31l-12.41-51.79h10.95Z"/>
    <path class="st0" d="M113.8,14.06v7.98h-16.94v12.74h15.61v7.98h-15.61v14.99h17.48v8.09h-27.99V14.06h27.44Z"/>
    <path class="st0" d="M138.46,14.06c4.6,0,8.01,1.12,10.24,3.36s3.33,5.7,3.33,10.36c0,3.69-.74,6.56-2.23,8.61-1.48,2.05-3.78,3.39-6.89,3.99,3.31.47,5.58,1.45,6.82,2.94,1.24,1.49,1.96,3.91,2.16,7.25l.51,8.89c.07,1.26.15,2.46.25,3.61.1,1.14.27,2.07.49,2.77h-10.3c-.43-1.05-.73-1.91-.88-2.57-.16-.67-.24-1.7-.24-3.1v-7.95c0-2.99-.57-5.04-1.7-6.14-1.13-1.11-3.28-1.66-6.43-1.66h-2.04v21.43h-10.58V14.06h17.48ZM131.56,36.43h2.45c3.04,0,5.05-.58,6.04-1.75.99-1.17,1.48-3.05,1.48-5.64s-.49-4.38-1.46-5.43c-.98-1.05-3.06-1.58-6.26-1.58h-2.24v14.39Z"/>
    <path class="st0" d="M164.72,14.06l7.52,21.88,8.03-21.88h10.71l-13.98,32.77v19.01h-10.68v-19.01l-13.09-32.77h11.49Z"/>
    <path class="st0" d="M201.16,65.11c-2.23-1.12-3.94-2.65-5.12-4.59-1.18-1.94-2.06-4.38-2.64-7.34-.58-2.95-.87-7.58-.87-13.88,0-7.42.58-12.9,1.73-16.42,1.16-3.52,3.02-6.1,5.59-7.74,2.57-1.63,5.91-2.45,10.02-2.45s7.32.63,9.71,1.89c2.39,1.26,4.13,3.01,5.2,5.23,1.08,2.23,1.79,4.73,2.13,7.49.34,2.77.51,6.86.51,12.27,0,4.86-.11,8.47-.34,10.85-.23,2.38-.67,4.61-1.33,6.69-.66,2.08-1.64,3.82-2.94,5.23-1.3,1.41-3.02,2.5-5.15,3.27-2.13.77-4.78,1.16-7.96,1.16-3.47,0-6.32-.56-8.55-1.68ZM203.25,40.81c0,5.56.2,9.45.6,11.69.4,2.24,1.07,3.9,2.01,4.97.94,1.07,2.28,1.61,4.03,1.61,2.45,0,4.13-.92,5.05-2.75.92-1.83,1.44-4.36,1.56-7.58.13-3.22.19-6.54.19-9.94v-4.94c0-4.71-.47-8.13-1.41-10.24-.94-2.11-2.72-3.17-5.32-3.17s-4.32,1.13-5.27,3.38c-.95,2.25-1.43,6.45-1.43,12.59v4.38Z"/>
    <path class="st0" d="M249.91,14.06l13.43,35.85V14.06h9.76v51.79h-13.81l-13.77-37.85v37.85h-9.76V14.06h14.15Z"/>
    <path class="st0" d="M309.53,14.06v7.98h-16.94v12.74h15.61v7.98h-15.61v14.99h17.48v8.09h-27.99V14.06h27.44Z"/>
  </g>
  <g>
    <path class="st0" d="M28.76,390.2h-5.35v-.51c0-1.52-.23-2.62-.68-3.29-.45-.67-1.1-1.01-1.93-1.01-.95,0-1.65.39-2.09,1.18-.44.78-.73,1.78-.87,2.98-.14,1.2-.21,3.22-.21,6.04,0,.95.02,2.22.07,3.8.05,1.59.31,2.9.78,3.94s1.26,1.56,2.37,1.56c.93,0,1.63-.4,2.11-1.19.48-.8.72-2.06.72-3.8v-.31h5.39v.78c0,2.86-.67,5-2,6.44-1.33,1.44-3.38,2.15-6.15,2.15-1.8,0-3.27-.28-4.4-.84-1.13-.56-1.99-1.31-2.59-2.26s-1.04-2.16-1.32-3.63c-.29-1.47-.43-3.81-.43-7,0-2.52.08-4.49.23-5.93.15-1.43.5-2.77,1.03-3.99.54-1.23,1.43-2.2,2.68-2.93,1.25-.72,2.94-1.08,5.06-1.08,2.48,0,4.37.65,5.66,1.96,1.29,1.31,1.93,3.35,1.93,6.14v.82Z"/>
    <path class="st0" d="M36.79,408.28c-1.16-.58-2.05-1.38-2.66-2.39s-1.07-2.28-1.37-3.82c-.3-1.54-.45-3.95-.45-7.23,0-3.87.3-6.72.9-8.55.6-1.84,1.57-3.18,2.91-4.03s3.07-1.28,5.2-1.28,3.8.33,5.04.99c1.24.66,2.14,1.56,2.7,2.73.56,1.16.93,2.46,1.1,3.9.18,1.44.27,3.57.27,6.39,0,2.53-.06,4.41-.18,5.65s-.35,2.4-.69,3.48c-.34,1.08-.85,1.99-1.53,2.73-.68.74-1.57,1.3-2.68,1.71-1.11.4-2.48.6-4.13.6-1.8,0-3.28-.29-4.44-.88ZM37.88,395.62c0,2.89.1,4.92.31,6.09.21,1.17.55,2.03,1.04,2.59.49.56,1.19.84,2.09.84,1.27,0,2.15-.48,2.62-1.43.48-.96.75-2.27.81-3.95.06-1.68.1-3.4.1-5.18v-2.57c0-2.46-.24-4.23-.73-5.33-.49-1.1-1.41-1.65-2.76-1.65s-2.24.59-2.74,1.76c-.49,1.17-.74,3.36-.74,6.56v2.28Z"/>
    <path class="st0" d="M62.11,381.68l6.98,18.68v-18.68h5.07v26.98h-7.17l-7.15-19.72v19.72h-5.07v-26.98h7.35Z"/>
    <path class="st0" d="M94.38,381.68v4.38h-6.08v22.6h-5.55v-22.6h-6.01v-4.38h17.63Z"/>
    <path class="st0" d="M111.16,381.68v4.16h-8.8v6.64h8.11v4.16h-8.11v7.81h9.08v4.21h-14.54v-26.98h14.25Z"/>
    <path class="st0" d="M122.41,381.68l6.98,18.68v-18.68h5.07v26.98h-7.17l-7.15-19.72v19.72h-5.07v-26.98h7.35Z"/>
    <path class="st0" d="M154.68,381.68v4.38h-6.08v22.6h-5.55v-22.6h-6.01v-4.38h17.63Z"/>
    <path class="st0" d="M174.21,381.68c2.39,0,4.16.58,5.32,1.75,1.15,1.17,1.73,2.97,1.73,5.4,0,1.92-.39,3.42-1.16,4.49-.77,1.07-1.96,1.76-3.58,2.08,1.72.24,2.9.75,3.54,1.53.64.78,1.02,2.04,1.12,3.77l.27,4.63c.03.66.08,1.28.13,1.88.05.6.14,1.08.26,1.44h-5.35c-.22-.55-.38-.99-.46-1.34s-.12-.88-.12-1.61v-4.14c0-1.56-.29-2.62-.88-3.2-.59-.58-1.7-.87-3.34-.87h-1.06v11.16h-5.49v-26.98h9.08ZM170.63,393.34h1.27c1.58,0,2.62-.3,3.14-.91.51-.61.77-1.59.77-2.94s-.25-2.28-.76-2.83c-.51-.55-1.59-.82-3.25-.82h-1.17v7.5Z"/>
    <path class="st0" d="M197.81,381.68l7.08,26.98h-5.76l-1.45-5.98h-7.44l-1.48,5.98h-5.4l7.24-26.98h7.21ZM191.29,398.61h5.28l-2.72-11.73-2.56,11.73Z"/>
    <path class="st0" d="M220.29,381.68v4.38h-6.08v22.6h-5.55v-22.6h-6.01v-4.38h17.63Z"/>
    <path class="st0" d="M237.07,381.68v4.16h-8.8v6.64h8.11v4.16h-8.11v7.81h9.08v4.21h-14.54v-26.98h14.25Z"/>
    <path class="st0" d="M249.4,381.68c2.01,0,3.63.3,4.86.89,1.22.6,2.14,1.41,2.74,2.45.6,1.04,1.02,2.27,1.27,3.69.25,1.42.37,3.66.37,6.71,0,3.98-.31,6.79-.94,8.44-.63,1.65-1.63,2.86-2.99,3.63-1.37.77-3.25,1.16-5.65,1.16h-8.04v-26.98h8.39ZM246.59,404.45h1.32c1.67,0,2.81-.23,3.42-.7.61-.47,1.06-1.25,1.37-2.35.31-1.1.46-3.04.46-5.81,0-2.92-.13-5.04-.4-6.38-.26-1.33-.71-2.22-1.32-2.68-.62-.46-1.73-.68-3.33-.68h-1.52v18.6Z"/>
    <path class="st0" d="M280.29,381.68c2.81,0,4.87.54,6.16,1.61s1.94,2.81,1.94,5.19c0,1.73-.37,3.11-1.12,4.14s-1.86,1.71-3.33,2.02c1.67.24,2.91.9,3.7,1.96.79,1.06,1.19,2.64,1.19,4.73,0,2.53-.64,4.38-1.93,5.55s-3.31,1.76-6.08,1.76h-9.73v-26.98h9.18ZM279.43,392.72c.99,0,1.73-.14,2.21-.43.48-.28.84-.63,1.09-1.04s.36-1.13.36-2.16-.28-1.88-.84-2.43c-.56-.55-1.68-.82-3.37-.82h-2.35v6.88h2.9ZM276.53,404.52h2.21c1.93,0,3.19-.3,3.76-.91.58-.61.87-1.6.87-2.97s-.32-2.41-.95-2.95c-.64-.55-1.69-.82-3.16-.82h-2.72v7.66Z"/>
    <path class="st0" d="M297.07,381.68l3.9,11.4,4.17-11.4h5.56l-7.26,17.07v9.9h-5.55v-9.9l-6.8-17.07h5.97Z"/>
  </g>
  <g>
    <path class="st0" d="M11.83,418.49h58.44v8.12h-36.59v6.04h33.94v7.76h-33.94v7.5h37.65v8.61H11.83v-38.03Z"/>
    <path class="st0" d="M84.21,442.9l20.75.34c.45,1.82,1.36,3.2,2.74,4.15,2.25,1.54,5.46,2.31,9.63,2.31,3.11,0,5.51-.39,7.2-1.18,1.69-.79,2.53-1.7,2.53-2.74s-.8-1.87-2.41-2.65c-1.61-.09-5.33-.48-11.17-1.17-9.56-1.16-16.38-2.7-20.46-4.62-4.11-1.92-6.16-4.71-6.16-8.38,0-1.95,1.05-3.8,3.15-5.54,2.1-1.74,5.26-3.1,9.48-4.1,4.22-.99,10-1.49,17.35-1.49,9.02,0,15.89.9,20.63,2.71,4.73,1.81,7.55,4.86,8.45,9.14l-20.56.13c-.55-1.71-1.69-2.96-3.44-3.74-1.75-.78-4.16-1.17-7.25-1.17-2.54,0-4.45.29-5.73.87-1.28.58-1.93,1.28-1.93,2.11,0,.61.53,1.15,1.59,1.63,1.03,1.19,3.47,2.01,7.32,2.44,9.53,1.11,16.36,2.23,20.48,3.36,4.12,1.13,7.12,2.54,9,4.21,1.88,1.68,2.82,3.21,2.82,4.59,0,2.44-1.25,4.69-3.76,6.74-2.5,2.06-6,3.62-10.49,4.68-4.49,1.06-10.16,1.6-16.99,1.6-12,0-20.32-1.25-24.94-3.74-4.62-2.49-7.24-6-7.85-10.53Z"/>
    <path class="st0" d="M164.43,456.52v-38.03h36.35c6.74,0,11.89.31,15.45.93,3.56.62,6.43,1.78,8.62,3.46,2.18,1.69,3.27,3.74,3.27,6.16,0,2.11-.84,3.93-2.5,5.46-1.67,1.53-3.96,2.77-6.88,3.72-1.86.61-4.41,1.11-7.65,1.51,9.98-.14,15,3.16,15.07,9.91l.48,6.87h-21.76l-.14-7.08c1.06-3.7-1.65-5.94-8.14-6.72-3.02-.02-5.79-.04-8.33-.08h-1.93v13.88h-21.9ZM186.33,433.9h9.2c.99,0,2.92-.17,5.78-.52,1.44-.16,2.62-.55,3.54-1.19.92-.64,1.37-1.38,1.37-2.21,0-1.23-.72-2.17-2.17-2.83-1.44-.66-4.16-.99-8.14-.99h-9.58v7.73Z"/>
    <path class="st0" d="M245.8,418.49h40.82c6.8,0,12.03.91,15.67,2.72,3.64,1.82,5.46,4.06,5.46,6.74,0,2.25-1.3,4.18-3.9,5.78-1.73,1.07-4.27,1.92-7.61,2.54,5.07.66,8.8,1.79,11.19,3.38,2.39,1.6,3.59,3.61,3.59,6.03,0,1.97-.85,3.74-2.55,5.32s-4.03,2.82-6.98,3.74c-1.83.57-4.59.99-8.28,1.24-4.91.35-8.17.52-9.77.52h-37.65v-38.03ZM267.81,433.4h9.48c3.4,0,5.77-.32,7.1-.95,1.33-.63,2-1.54,2-2.74,0-1.11-.67-1.97-2-2.59s-3.65-.93-6.96-.93h-9.63v7.21ZM267.81,448.34h11.12c3.75,0,6.4-.36,7.94-1.08,1.54-.72,2.31-1.68,2.31-2.89,0-1.12-.76-2.03-2.29-2.71-1.52-.68-4.2-1.03-8.02-1.03h-11.07v7.7Z"/>
  </g>
  <path class="st1" d="M35.55,84.89v3h-6v14.99h-3v-14.99h-6v-3h14.99ZM38.55,84.89h3.75l4.5,7.79,4.5-7.79h3.75v17.99h-3v-13.29l-5.25,9.09-5.25-9.08v13.29h-3v-17.99Z"/>
  <path d="M40.78,135.86l184.58-49.29,13.82,51.77-109.95,29.36,8.62,32.27,92.1-24.59,14,52.44-92.1,24.59,9.6,35.94,113.3-30.25,13.48,50.48-187.92,50.18-59.52-222.89Z"/>
</svg>