<?xml version="1.0" encoding="UTF-8"?>
<svg id="Layer_1" xmlns="http://www.w3.org/2000/svg" version="1.1" xmlns:xlink="http://www.w3.org/1999/xlink" viewBox="0 0 322.87 464.82">
  <!-- Generator: Adobe Illustrator 29.2.1, SVG Export Plug-In . SVG Version: 2.1.0 Build 116)  -->
  <defs>
    <style>
      .st0 {
        fill: #fff;
      }

      .st1 {
        fill: none;
      }

      .st2 {
        fill: #010101;
      }

      .st3 {
        clip-path: url(#clippath);
      }
    </style>
    <clipPath id="clippath">
      <rect class="st1" x="31.01" y="82.37" width="253.15" height="280.47" transform="translate(-54.09 50.62) rotate(-15.61)"/>
    </clipPath>
  </defs>
  <rect width="322.87" height="464.82"/>
  <rect class="st0" x="12.53" y="75.15" width="297.82" height="297.82"/>
  <g>
    <path class="st0" d="M40.24,14.06v7.98h-16.94v12.74h15.61v7.98h-15.61v14.99h17.48v8.09H12.8V14.06h27.44Z"/>
    <path class="st0" d="M54.53,14.06l7.86,37.68,8.84-37.68h10.37l-13.3,51.79h-12.31l-12.41-51.79h10.95Z"/>
    <path class="st0" d="M113.8,14.06v7.98h-16.94v12.74h15.61v7.98h-15.61v14.99h17.48v8.09h-27.99V14.06h27.44Z"/>
    <path class="st0" d="M138.46,14.06c4.6,0,8.01,1.12,10.24,3.36s3.33,5.7,3.33,10.36c0,3.69-.74,6.56-2.23,8.61-1.48,2.05-3.78,3.39-6.89,3.99,3.31.47,5.58,1.45,6.82,2.94s1.96,3.91,2.16,7.25l.51,8.89c.07,1.26.15,2.46.25,3.61.1,1.14.27,2.07.49,2.77h-10.3c-.43-1.05-.73-1.91-.88-2.57-.16-.67-.24-1.7-.24-3.1v-7.95c0-2.99-.57-5.04-1.7-6.14-1.13-1.11-3.28-1.66-6.43-1.66h-2.04v21.43h-10.58V14.06h17.48ZM131.56,36.43h2.45c3.04,0,5.05-.58,6.04-1.75.99-1.17,1.48-3.05,1.48-5.64s-.49-4.38-1.46-5.43c-.98-1.05-3.06-1.58-6.26-1.58h-2.24v14.39Z"/>
    <path class="st0" d="M164.72,14.06l7.52,21.88,8.03-21.88h10.71l-13.98,32.77v19.01h-10.68v-19.01l-13.09-32.77h11.49Z"/>
    <path class="st0" d="M201.16,65.11c-2.23-1.12-3.94-2.65-5.12-4.59-1.18-1.94-2.06-4.38-2.64-7.34-.58-2.95-.87-7.58-.87-13.88,0-7.42.58-12.9,1.73-16.42,1.16-3.52,3.02-6.1,5.59-7.74s5.91-2.45,10.02-2.45,7.32.63,9.71,1.89,4.13,3.01,5.2,5.23c1.08,2.23,1.79,4.73,2.13,7.49s.51,6.86.51,12.27c0,4.86-.11,8.47-.34,10.85s-.67,4.61-1.33,6.69c-.66,2.08-1.64,3.82-2.94,5.23-1.3,1.41-3.02,2.5-5.15,3.27-2.13.77-4.78,1.16-7.96,1.16-3.47,0-6.32-.56-8.55-1.68ZM203.25,40.81c0,5.56.2,9.45.6,11.69.4,2.24,1.07,3.9,2.01,4.97.94,1.07,2.28,1.61,4.03,1.61,2.45,0,4.13-.92,5.05-2.75.92-1.83,1.44-4.36,1.56-7.58.13-3.22.19-6.54.19-9.94v-4.94c0-4.71-.47-8.13-1.41-10.24-.94-2.11-2.72-3.17-5.32-3.17s-4.32,1.13-5.27,3.38c-.95,2.25-1.43,6.45-1.43,12.59v4.38Z"/>
    <path class="st0" d="M249.91,14.06l13.43,35.85V14.06h9.76v51.79h-13.81l-13.77-37.85v37.85h-9.76V14.06h14.15Z"/>
    <path class="st0" d="M309.53,14.06v7.98h-16.94v12.74h15.61v7.98h-15.61v14.99h17.48v8.09h-27.99V14.06h27.44Z"/>
  </g>
  <g>
    <path class="st0" d="M28.76,390.2h-5.35v-.51c0-1.52-.23-2.62-.68-3.29-.45-.67-1.1-1.01-1.93-1.01-.95,0-1.65.39-2.09,1.18-.44.78-.73,1.78-.87,2.98-.14,1.2-.21,3.22-.21,6.04,0,.95.02,2.22.07,3.8.05,1.59.31,2.9.78,3.94s1.26,1.56,2.37,1.56c.93,0,1.63-.4,2.11-1.19.48-.8.72-2.06.72-3.8v-.31h5.39v.78c0,2.86-.67,5-2,6.44-1.33,1.44-3.38,2.15-6.15,2.15-1.8,0-3.27-.28-4.4-.84-1.13-.56-1.99-1.31-2.59-2.26s-1.04-2.16-1.32-3.63-.43-3.81-.43-7c0-2.52.08-4.49.23-5.93.15-1.43.5-2.77,1.03-3.99.54-1.23,1.43-2.2,2.68-2.93,1.25-.72,2.94-1.08,5.06-1.08,2.48,0,4.37.65,5.66,1.96s1.93,3.35,1.93,6.14v.82Z"/>
    <path class="st0" d="M36.79,408.28c-1.16-.58-2.05-1.38-2.66-2.39s-1.07-2.28-1.37-3.82c-.3-1.54-.45-3.95-.45-7.23,0-3.87.3-6.72.9-8.55.6-1.84,1.57-3.18,2.91-4.03s3.07-1.28,5.2-1.28,3.8.33,5.04.99c1.24.66,2.14,1.56,2.7,2.73.56,1.16.93,2.46,1.1,3.9.18,1.44.27,3.57.27,6.39,0,2.53-.06,4.41-.18,5.65s-.35,2.4-.69,3.48c-.34,1.08-.85,1.99-1.53,2.73-.68.74-1.57,1.3-2.68,1.71-1.11.4-2.48.6-4.13.6-1.8,0-3.28-.29-4.44-.88ZM37.88,395.62c0,2.89.1,4.92.31,6.09.21,1.17.55,2.03,1.04,2.59.49.56,1.19.84,2.09.84,1.27,0,2.15-.48,2.62-1.43.48-.96.75-2.27.81-3.95.06-1.68.1-3.4.1-5.18v-2.57c0-2.46-.24-4.23-.73-5.33-.49-1.1-1.41-1.65-2.76-1.65s-2.24.59-2.74,1.76-.74,3.36-.74,6.56v2.28Z"/>
    <path class="st0" d="M62.11,381.68l6.98,18.68v-18.68h5.07v26.98h-7.17l-7.15-19.72v19.72h-5.07v-26.98h7.35Z"/>
    <path class="st0" d="M94.38,381.68v4.38h-6.08v22.6h-5.55v-22.6h-6.01v-4.38h17.63Z"/>
    <path class="st0" d="M111.16,381.68v4.16h-8.8v6.64h8.11v4.16h-8.11v7.81h9.08v4.21h-14.54v-26.98h14.25Z"/>
    <path class="st0" d="M122.41,381.68l6.98,18.68v-18.68h5.07v26.98h-7.17l-7.15-19.72v19.72h-5.07v-26.98h7.35Z"/>
    <path class="st0" d="M154.68,381.68v4.38h-6.08v22.6h-5.55v-22.6h-6.01v-4.38h17.63Z"/>
    <path class="st0" d="M174.21,381.68c2.39,0,4.16.58,5.32,1.75,1.15,1.17,1.73,2.97,1.73,5.4,0,1.92-.39,3.42-1.16,4.49-.77,1.07-1.96,1.76-3.58,2.08,1.72.24,2.9.75,3.54,1.53.64.78,1.02,2.04,1.12,3.77l.27,4.63c.03.66.08,1.28.13,1.88.05.6.14,1.08.26,1.44h-5.35c-.22-.55-.38-.99-.46-1.34s-.12-.88-.12-1.61v-4.14c0-1.56-.29-2.62-.88-3.2-.59-.58-1.7-.87-3.34-.87h-1.06v11.16h-5.49v-26.98h9.08ZM170.63,393.34h1.27c1.58,0,2.62-.3,3.14-.91.51-.61.77-1.59.77-2.94s-.25-2.28-.76-2.83c-.51-.55-1.59-.82-3.25-.82h-1.17v7.5Z"/>
    <path class="st0" d="M197.81,381.68l7.08,26.98h-5.76l-1.45-5.98h-7.44l-1.48,5.98h-5.4l7.24-26.98h7.21ZM191.29,398.61h5.28l-2.72-11.73-2.56,11.73Z"/>
    <path class="st0" d="M220.29,381.68v4.38h-6.08v22.6h-5.55v-22.6h-6.01v-4.38h17.63Z"/>
    <path class="st0" d="M237.07,381.68v4.16h-8.8v6.64h8.11v4.16h-8.11v7.81h9.08v4.21h-14.54v-26.98h14.25Z"/>
    <path class="st0" d="M249.4,381.68c2.01,0,3.63.3,4.86.89,1.22.6,2.14,1.41,2.74,2.45.6,1.04,1.02,2.27,1.27,3.69s.37,3.66.37,6.71c0,3.98-.31,6.79-.94,8.44-.63,1.65-1.63,2.86-2.99,3.63-1.37.77-3.25,1.16-5.65,1.16h-8.04v-26.98h8.39ZM246.59,404.45h1.32c1.67,0,2.81-.23,3.42-.7.61-.47,1.06-1.25,1.37-2.35.31-1.1.46-3.04.46-5.81,0-2.92-.13-5.04-.4-6.38-.26-1.33-.71-2.22-1.32-2.68-.62-.46-1.73-.68-3.33-.68h-1.52v18.6Z"/>
    <path class="st0" d="M280.29,381.68c2.81,0,4.87.54,6.16,1.61s1.94,2.81,1.94,5.19c0,1.73-.37,3.11-1.12,4.14s-1.86,1.71-3.33,2.02c1.67.24,2.91.9,3.7,1.96.79,1.06,1.19,2.64,1.19,4.73,0,2.53-.64,4.38-1.93,5.55s-3.31,1.76-6.08,1.76h-9.73v-26.98h9.18ZM279.43,392.72c.99,0,1.73-.14,2.21-.43.48-.28.84-.63,1.09-1.04s.36-1.13.36-2.16-.28-1.88-.84-2.43c-.56-.55-1.68-.82-3.37-.82h-2.35v6.88h2.9ZM276.53,404.52h2.21c1.93,0,3.19-.3,3.76-.91.58-.61.87-1.6.87-2.97s-.32-2.41-.95-2.95c-.64-.55-1.69-.82-3.16-.82h-2.72v7.66Z"/>
    <path class="st0" d="M297.07,381.68l3.9,11.4,4.17-11.4h5.56l-7.26,17.07v9.9h-5.55v-9.9l-6.8-17.07h5.97Z"/>
  </g>
  <g>
    <path class="st0" d="M11.83,418.49h58.44v8.12h-36.59v6.04h33.94v7.76h-33.94v7.5h37.65v8.61H11.83v-38.03Z"/>
    <path class="st0" d="M84.21,442.9l20.75.34c.45,1.82,1.36,3.2,2.74,4.15,2.25,1.54,5.46,2.31,9.63,2.31,3.11,0,5.51-.39,7.2-1.18,1.69-.79,2.53-1.7,2.53-2.74s-.8-1.87-2.41-2.65c-1.61-.09-5.33-.48-11.17-1.17-9.56-1.16-16.38-2.7-20.46-4.62-4.11-1.92-6.16-4.71-6.16-8.38,0-1.95,1.05-3.8,3.15-5.54,2.1-1.74,5.26-3.1,9.48-4.1,4.22-.99,10-1.49,17.35-1.49,9.02,0,15.89.9,20.63,2.71,4.73,1.81,7.55,4.86,8.45,9.14l-20.56.13c-.55-1.71-1.69-2.96-3.44-3.74-1.75-.78-4.16-1.17-7.25-1.17-2.54,0-4.45.29-5.73.87-1.28.58-1.93,1.28-1.93,2.11,0,.61.53,1.15,1.59,1.63,1.03,1.19,3.47,2.01,7.32,2.44,9.53,1.11,16.36,2.23,20.48,3.36,4.12,1.13,7.12,2.54,9,4.21,1.88,1.68,2.82,3.21,2.82,4.59,0,2.44-1.25,4.69-3.76,6.74-2.5,2.06-6,3.62-10.49,4.68-4.49,1.06-10.16,1.6-16.99,1.6-12,0-20.32-1.25-24.94-3.74-4.62-2.49-7.24-6-7.85-10.53Z"/>
    <path class="st0" d="M164.43,456.52v-38.03h36.35c6.74,0,11.89.31,15.45.93,3.56.62,6.43,1.78,8.62,3.46,2.18,1.69,3.27,3.74,3.27,6.16,0,2.11-.84,3.93-2.5,5.46-1.67,1.53-3.96,2.77-6.88,3.72-1.86.61-4.41,1.11-7.65,1.51,9.98-.14,15,3.16,15.07,9.91l.48,6.87h-21.76l-.14-7.08c1.06-3.7-1.65-5.94-8.14-6.72-3.02-.02-5.79-.04-8.33-.08h-1.93v13.88h-21.9ZM186.33,433.9h9.2c.99,0,2.92-.17,5.78-.52,1.44-.16,2.62-.55,3.54-1.19.92-.64,1.37-1.38,1.37-2.21,0-1.23-.72-2.17-2.17-2.83-1.44-.66-4.16-.99-8.14-.99h-9.58v7.73Z"/>
    <path class="st0" d="M245.8,418.49h40.82c6.8,0,12.03.91,15.67,2.72,3.64,1.82,5.46,4.06,5.46,6.74,0,2.25-1.3,4.18-3.9,5.78-1.73,1.07-4.27,1.92-7.61,2.54,5.07.66,8.8,1.79,11.19,3.38,2.39,1.6,3.59,3.61,3.59,6.03,0,1.97-.85,3.74-2.55,5.32s-4.03,2.82-6.98,3.74c-1.83.57-4.59.99-8.28,1.24-4.91.35-8.17.52-9.77.52h-37.65v-38.03ZM267.81,433.4h9.48c3.4,0,5.77-.32,7.1-.95,1.33-.63,2-1.54,2-2.74,0-1.11-.67-1.97-2-2.59s-3.65-.93-6.96-.93h-9.63v7.21ZM267.81,448.34h11.12c3.75,0,6.4-.36,7.94-1.08,1.54-.72,2.31-1.68,2.31-2.89,0-1.12-.76-2.03-2.29-2.71-1.52-.68-4.2-1.03-8.02-1.03h-11.07v7.7Z"/>
  </g>
  <g id="Artwork_13">
    <g class="st3">
      <rect x="101.34" y="120.6" width="5.5" height="5.5" transform="translate(-29.36 32.56) rotate(-15.61)"/>
      <rect x="94.57" y="116.79" width="5.5" height="5.5" transform="translate(-28.58 30.6) rotate(-15.61)"/>
      <rect x="98.38" y="110.01" width="5.5" height="5.5" transform="translate(-26.62 31.38) rotate(-15.61)"/>
      <rect x="111.93" y="117.64" width="5.5" height="5.5" transform="translate(-28.17 35.31) rotate(-15.61)"/>
      <rect x="105.16" y="113.83" width="5.5" height="5.5" transform="translate(-27.39 33.34) rotate(-15.61)"/>
      <rect x="87.79" y="112.97" width="5.5" height="5.5" transform="translate(-27.8 28.64) rotate(-15.61)"/>
      <rect x="75.72" y="110.63" width="5.5" height="5.5" transform="translate(-27.62 25.3) rotate(-15.61)"/>
      <rect x="102.2" y="103.23" width="5.5" height="5.5" transform="translate(-24.65 32.15) rotate(-15.61)"/>
      <rect x="112.79" y="100.27" width="5.5" height="5.5" transform="translate(-23.46 34.9) rotate(-15.61)"/>
      <rect x="121.9" y="92.02" width="5.5" height="5.5" transform="translate(-20.9 37.04) rotate(-15.61)"/>
      <rect x="135.46" y="99.65" width="5.5" height="5.5" transform="translate(-22.46 40.97) rotate(-15.61)"/>
      <rect x="128.68" y="95.83" width="5.5" height="5.5" transform="translate(-21.68 39.01) rotate(-15.61)"/>
      <rect x="153.68" y="83.14" width="5.5" height="5.5" transform="translate(-17.34 45.27) rotate(-15.61)"/>
      <rect x="167.23" y="90.77" width="5.5" height="5.5" transform="translate(-18.9 49.2) rotate(-15.61)"/>
      <rect x="160.46" y="86.95" width="5.5" height="5.5" transform="translate(-18.12 47.23) rotate(-15.61)"/>
      <rect x="174.01" y="94.59" width="5.5" height="5.5" transform="translate(-19.67 51.16) rotate(-15.61)"/>
      <rect x="137.79" y="87.58" width="5.5" height="5.5" transform="translate(-19.12 41.16) rotate(-15.61)"/>
      <rect x="146.05" y="96.69" width="5.5" height="5.5" transform="translate(-21.27 43.71) rotate(-15.61)"/>
      <rect x="169.57" y="78.7" width="5.5" height="5.5" transform="translate(-15.56 49.38) rotate(-15.61)"/>
      <rect x="177.83" y="87.81" width="5.5" height="5.5" transform="translate(-17.71 51.94) rotate(-15.61)"/>
      <rect x="185.46" y="74.26" width="5.5" height="5.5" transform="translate(-13.78 53.49) rotate(-15.61)"/>
      <rect x="199.01" y="81.89" width="5.5" height="5.5" transform="translate(-15.33 57.42) rotate(-15.61)"/>
      <rect x="192.24" y="78.07" width="5.5" height="5.5" transform="translate(-14.56 55.46) rotate(-15.61)"/>
      <polygon points="208.11 97.14 209.59 102.44 214.89 100.96 220.18 99.48 221.66 104.77 216.37 106.25 211.07 107.73 212.55 113.03 217.85 111.55 219.33 116.85 214.03 118.33 215.51 123.62 216.99 128.92 222.29 127.44 223.77 132.73 229.06 131.25 230.54 136.55 235.84 135.07 234.36 129.77 232.88 124.48 227.58 125.96 226.1 120.66 224.63 115.37 223.14 110.07 228.44 108.59 226.96 103.29 225.48 98 224 92.7 218.7 94.18 213.41 95.66 211.93 90.36 210.45 85.07 205.15 86.55 206.63 91.84 208.11 97.14"/>
      <polygon points="231.4 119.18 232.88 124.48 238.18 123 236.7 117.7 241.99 116.22 240.51 110.92 235.22 112.4 233.74 107.11 228.44 108.59 229.92 113.88 231.4 119.18"/>
      <rect x="232.9" y="100.97" width="5.5" height="5.5" transform="translate(-19.22 67.25) rotate(-15.61)"/>
      <polygon points="244.95 126.81 250.25 125.33 248.77 120.04 243.47 121.52 238.18 123 239.66 128.29 244.95 126.81"/>
      <rect x="243.26" y="138.05" width="5.5" height="5.5" transform="translate(-28.82 71.4) rotate(-15.61)"/>
      <rect x="236.48" y="134.23" width="5.5" height="5.5" transform="translate(-28.04 69.44) rotate(-15.61)"/>
      <rect x="250.89" y="124.49" width="5.5" height="5.5" transform="translate(-24.89 72.96) rotate(-15.61)"/>
      <rect x="262.11" y="144.2" width="5.5" height="5.5" transform="translate(-29.78 76.7) rotate(-15.61)"/>
      <rect x="255.33" y="140.38" width="5.5" height="5.5" transform="translate(-29 74.74) rotate(-15.61)"/>
      <polygon points="50.7 146.84 55.99 145.36 54.51 140.06 59.81 138.58 58.33 133.28 53.03 134.76 47.74 136.24 49.22 141.54 43.92 143.02 38.62 144.5 40.1 149.8 45.4 148.32 50.7 146.84"/>
      <polygon points="68.92 130.32 67.44 125.03 62.15 126.51 56.85 127.99 58.33 133.28 63.63 131.8 68.92 130.32"/>
      <rect x="36.3" y="133.07" width="5.5" height="5.5" transform="translate(-35.11 15.52) rotate(-15.61)"/>
      <rect x="40.12" y="126.29" width="5.5" height="5.5" transform="translate(-33.15 16.3) rotate(-15.61)"/>
      <rect x="59.83" y="115.07" width="5.5" height="5.5" transform="translate(-29.4 21.19) rotate(-15.61)"/>
      <rect x="63.64" y="108.3" width="5.5" height="5.5" transform="translate(-27.44 21.96) rotate(-15.61)"/>
      <rect x="49.23" y="118.03" width="5.5" height="5.5" transform="translate(-30.59 18.45) rotate(-15.61)"/>
      <rect x="83.35" y="97.08" width="5.5" height="5.5" transform="translate(-23.69 26.85) rotate(-15.61)"/>
      <rect x="216.38" y="82.74" width="5.5" height="5.5" transform="translate(-14.92 62.13) rotate(-15.61)"/>
      <rect x="229.94" y="90.38" width="5.5" height="5.5" transform="translate(-16.48 66.06) rotate(-15.61)"/>
      <rect x="226.98" y="79.78" width="5.5" height="5.5" transform="translate(-13.74 64.87) rotate(-15.61)"/>
      <rect x="251.75" y="107.12" width="5.5" height="5.5" transform="translate(-20.18 72.55) rotate(-15.61)"/>
      <rect x="242.01" y="92.71" width="5.5" height="5.5" transform="translate(-16.66 69.39) rotate(-15.61)"/>
      <polygon points="240.28 150.96 241.76 156.26 247.06 154.78 245.58 149.48 244.1 144.18 238.8 145.66 240.28 150.96"/>
      <polygon points="45.17 188.35 39.87 189.83 41.35 195.13 46.65 193.65 51.95 192.17 50.47 186.87 48.99 181.57 43.69 183.05 45.17 188.35"/>
      <rect x="48.14" y="175.44" width="5.5" height="5.5" transform="translate(-46.08 20.27) rotate(-15.61)"/>
      <rect x="63.18" y="188.37" width="5.5" height="5.5" transform="translate(-49 24.79) rotate(-15.61)"/>
      <polygon points="61.68 206.58 60.2 201.28 65.5 199.8 64.02 194.5 58.72 195.98 53.43 197.46 54.91 202.76 56.39 208.06 57.87 213.35 63.16 211.87 61.68 206.58"/>
      <rect x="41.37" y="171.62" width="5.5" height="5.5" transform="translate(-45.3 18.31) rotate(-15.61)"/>
      <rect x="30.77" y="174.58" width="5.5" height="5.5" transform="translate(-46.49 15.56) rotate(-15.61)"/>
      <rect x="36.93" y="155.73" width="5.5" height="5.5" transform="translate(-41.19 16.53) rotate(-15.61)"/>
      <rect x="26.33" y="158.69" width="5.5" height="5.5" transform="translate(-42.37 13.78) rotate(-15.61)"/>
      <rect x="29.92" y="191.95" width="5.5" height="5.5" transform="translate(-51.19 15.98) rotate(-15.61)"/>
      <rect x="44.95" y="204.88" width="5.5" height="5.5" transform="translate(-54.12 20.5) rotate(-15.61)"/>
      <rect x="41.13" y="211.66" width="5.5" height="5.5" transform="translate(-56.08 19.72) rotate(-15.61)"/>
      <rect x="59.98" y="217.81" width="5.5" height="5.5" transform="translate(-57.04 25.02) rotate(-15.61)"/>
      <rect x="53.21" y="213.99" width="5.5" height="5.5" transform="translate(-56.27 23.06) rotate(-15.61)"/>
      <rect x="38.8" y="223.73" width="5.5" height="5.5" transform="translate(-59.42 19.54) rotate(-15.61)"/>
      <rect x="50.87" y="226.07" width="5.5" height="5.5" transform="translate(-59.6 22.87) rotate(-15.61)"/>
      <polygon points="63.79 234.54 58.49 236.02 53.19 237.5 47.9 238.98 49.38 244.28 54.67 242.8 59.97 241.32 61.45 246.61 66.75 245.13 65.27 239.84 63.79 234.54"/>
      <polygon points="81.78 258.06 80.3 252.77 75 254.25 73.52 248.95 72.04 243.65 66.75 245.13 68.23 250.43 69.71 255.73 71.19 261.02 76.48 259.54 81.78 258.06"/>
      <rect x="51.49" y="248.73" width="5.5" height="5.5" transform="translate(-65.68 23.88) rotate(-15.61)"/>
      <rect x="58.27" y="252.55" width="5.5" height="5.5" transform="translate(-66.46 25.84) rotate(-15.61)"/>
      <rect x="55.93" y="264.62" width="5.5" height="5.5" transform="translate(-69.79 25.66) rotate(-15.61)"/>
      <rect x="66.53" y="261.66" width="5.5" height="5.5" transform="translate(-68.6 28.4) rotate(-15.61)"/>
      <rect x="76.26" y="276.07" width="5.5" height="5.5" transform="translate(-72.12 31.55) rotate(-15.61)"/>
      <rect x="72.45" y="282.85" width="5.5" height="5.5" transform="translate(-74.09 30.77) rotate(-15.61)"/>
      <rect x="70.11" y="294.92" width="5.5" height="5.5" transform="translate(-77.42 30.59) rotate(-15.61)"/>
      <rect x="63.33" y="291.1" width="5.5" height="5.5" transform="translate(-76.65 28.63) rotate(-15.61)"/>
      <rect x="64.19" y="273.73" width="5.5" height="5.5" transform="translate(-71.94 28.22) rotate(-15.61)"/>
      <rect x="55.08" y="281.99" width="5.5" height="5.5" transform="translate(-74.5 26.07) rotate(-15.61)"/>
      <polygon points="86.84 296.62 85.36 291.32 83.88 286.02 78.59 287.5 80.07 292.8 81.55 298.1 83.03 303.39 88.32 301.91 93.62 300.43 92.14 295.14 86.84 296.62"/>
      <polygon points="84.51 308.69 79.21 310.17 73.91 311.65 75.39 316.95 80.69 315.47 82.17 320.76 87.47 319.28 85.99 313.99 84.51 308.69"/>
      <rect x="63.96" y="313.77" width="5.5" height="5.5" transform="translate(-82.72 29.63) rotate(-15.61)"/>
      <rect x="88.1" y="318.44" width="5.5" height="5.5" transform="translate(-83.09 36.3) rotate(-15.61)"/>
      <rect x="73.7" y="328.18" width="5.5" height="5.5" transform="translate(-86.24 32.78) rotate(-15.61)"/>
      <rect x="84.29" y="325.22" width="5.5" height="5.5" transform="translate(-85.05 35.52) rotate(-15.61)"/>
      <rect x="78.14" y="344.07" width="5.5" height="5.5" transform="translate(-90.35 34.56) rotate(-15.61)"/>
      <rect x="88.73" y="341.11" width="5.5" height="5.5" transform="translate(-89.17 37.31) rotate(-15.61)"/>
      <rect x="35.61" y="253.17" width="5.5" height="5.5" transform="translate(-67.46 19.76) rotate(-15.61)"/>
      <polygon points="113.72 351.92 112.24 346.62 106.94 348.1 101.64 349.58 96.35 351.06 97.83 356.36 103.12 354.88 108.42 353.4 109.9 358.69 115.2 357.21 120.49 355.73 119.01 350.44 113.72 351.92"/>
      <polygon points="127.27 359.55 132.56 358.07 131.08 352.77 125.79 354.25 120.49 355.73 121.97 361.03 127.27 359.55"/>
      <rect x="99.94" y="360.81" width="5.5" height="5.5" transform="translate(-94.06 41.05) rotate(-15.61)"/>
      <rect x="106.72" y="364.63" width="5.5" height="5.5" transform="translate(-94.83 43.02) rotate(-15.61)"/>
      <rect x="136.16" y="367.82" width="5.5" height="5.5" transform="translate(-94.61 51.06) rotate(-15.61)"/>
      <rect x="129.39" y="364.01" width="5.5" height="5.5" transform="translate(-93.83 49.09) rotate(-15.61)"/>
      <rect x="118.79" y="366.97" width="5.5" height="5.5" transform="translate(-95.02 46.35) rotate(-15.61)"/>
      <rect x="162.02" y="337.76" width="5.5" height="5.5" transform="translate(-85.56 56.91) rotate(-15.61)"/>
      <rect x="172.61" y="334.8" width="5.5" height="5.5" transform="translate(-84.37 59.65) rotate(-15.61)"/>
      <rect x="158.21" y="344.53" width="5.5" height="5.5" transform="translate(-87.52 56.13) rotate(-15.61)"/>
      <rect x="154.39" y="351.31" width="5.5" height="5.5" transform="translate(-89.49 55.35) rotate(-15.61)"/>
      <rect x="168.8" y="341.57" width="5.5" height="5.5" transform="translate(-86.34 58.87) rotate(-15.61)"/>
      <rect x="164.98" y="348.35" width="5.5" height="5.5" transform="translate(-88.3 58.1) rotate(-15.61)"/>
      <rect x="171.76" y="352.17" width="5.5" height="5.5" transform="translate(-89.08 60.06) rotate(-15.61)"/>
      <rect x="182.35" y="349.21" width="5.5" height="5.5" transform="translate(-87.89 62.8) rotate(-15.61)"/>
      <rect x="202.06" y="337.99" width="5.5" height="5.5" transform="translate(-84.15 67.69) rotate(-15.61)"/>
      <rect x="198.24" y="344.77" width="5.5" height="5.5" transform="translate(-86.11 66.91) rotate(-15.61)"/>
      <rect x="194.42" y="351.54" width="5.5" height="5.5" transform="translate(-88.07 66.14) rotate(-15.61)"/>
      <rect x="212.65" y="335.03" width="5.5" height="5.5" transform="translate(-82.96 70.43) rotate(-15.61)"/>
      <rect x="210.31" y="347.1" width="5.5" height="5.5" transform="translate(-86.29 70.25) rotate(-15.61)"/>
      <rect x="233.84" y="329.11" width="5.5" height="5.5" transform="translate(-80.58 75.92) rotate(-15.61)"/>
      <rect x="230.02" y="335.89" width="5.5" height="5.5" transform="translate(-82.55 75.14) rotate(-15.61)"/>
      <rect x="226.2" y="342.66" width="5.5" height="5.5" transform="translate(-84.51 74.36) rotate(-15.61)"/>
      <rect x="242.09" y="338.22" width="5.5" height="5.5" transform="translate(-82.73 78.47) rotate(-15.61)"/>
      <rect x="265.62" y="320.23" width="5.5" height="5.5" transform="translate(-77.02 84.14) rotate(-15.61)"/>
      <rect x="261.8" y="327" width="5.5" height="5.5" transform="translate(-78.99 83.36) rotate(-15.61)"/>
      <rect x="257.98" y="333.78" width="5.5" height="5.5" transform="translate(-80.95 82.59) rotate(-15.61)"/>
      <rect x="237.65" y="322.33" width="5.5" height="5.5" transform="translate(-78.62 76.69) rotate(-15.61)"/>
      <rect x="244.43" y="326.15" width="5.5" height="5.5" transform="translate(-79.4 78.66) rotate(-15.61)"/>
      <rect x="277.69" y="322.56" width="5.5" height="5.5" transform="translate(-77.2 87.48) rotate(-15.61)"/>
      <rect x="280.02" y="310.49" width="5.5" height="5.5" transform="translate(-73.87 87.66) rotate(-15.61)"/>
      <rect x="287.66" y="296.94" width="5.5" height="5.5" transform="translate(-69.94 89.21) rotate(-15.61)"/>
      <rect x="284.7" y="286.35" width="5.5" height="5.5" transform="translate(-67.2 88.03) rotate(-15.61)"/>
      <rect x="290.62" y="307.53" width="5.5" height="5.5" transform="translate(-72.68 90.4) rotate(-15.61)"/>
      <rect x="296.77" y="288.68" width="5.5" height="5.5" transform="translate(-67.38 91.36) rotate(-15.61)"/>
      <rect x="297.63" y="271.31" width="5.5" height="5.5" transform="translate(-62.68 90.95) rotate(-15.61)"/>
      <polygon points="274.32 272.78 275.8 278.08 277.28 283.37 278.76 288.67 284.06 287.19 282.58 281.89 287.88 280.41 286.4 275.11 281.1 276.59 279.62 271.3 274.32 272.78"/>
      <polygon points="271.99 284.85 270.51 279.55 269.03 274.26 274.32 272.78 272.84 267.48 271.36 262.19 266.07 263.67 267.55 268.96 262.25 270.44 263.73 275.74 258.43 277.22 259.91 282.51 261.39 287.81 266.69 286.33 268.17 291.63 262.87 293.11 264.35 298.4 269.65 296.92 274.95 295.44 276.43 300.74 271.13 302.22 265.83 303.7 267.31 309 268.79 314.29 270.27 319.59 275.57 318.11 274.09 312.81 272.61 307.52 277.91 306.04 283.2 304.56 281.72 299.26 280.24 293.96 278.76 288.67 273.47 290.15 271.99 284.85"/>
      <polygon points="290.21 268.34 288.73 263.04 283.43 264.52 278.14 266 279.62 271.3 284.91 269.82 290.21 268.34"/>
      <rect x="287.89" y="256.9" width="5.5" height="5.5" transform="translate(-59.16 87.8) rotate(-15.61)"/>
      <rect x="270.52" y="256.05" width="5.5" height="5.5" transform="translate(-59.57 83.09) rotate(-15.61)"/>
      <rect x="274.34" y="249.27" width="5.5" height="5.5" transform="translate(-57.6 83.87) rotate(-15.61)"/>
      <polygon points="268.4 251.59 273.7 250.11 272.22 244.82 270.74 239.52 265.44 241 266.92 246.3 268.4 251.59"/>
      <rect x="259.3" y="236.34" width="5.5" height="5.5" transform="translate(-54.68 79.35) rotate(-15.61)"/>
      <rect x="252.53" y="232.53" width="5.5" height="5.5" transform="translate(-53.9 77.38) rotate(-15.61)"/>
      <rect x="269.9" y="233.38" width="5.5" height="5.5" transform="translate(-53.49 82.09) rotate(-15.61)"/>
      <rect x="256.34" y="225.75" width="5.5" height="5.5" transform="translate(-51.94 78.16) rotate(-15.61)"/>
      <rect x="266.94" y="222.79" width="5.5" height="5.5" transform="translate(-50.75 80.9) rotate(-15.61)"/>
      <rect x="270.75" y="216.01" width="5.5" height="5.5" transform="translate(-48.78 81.68) rotate(-15.61)"/>
      <polygon points="244.26 246.92 245.74 252.22 251.03 250.74 252.51 256.03 253.99 261.33 255.47 266.63 256.95 271.92 262.25 270.44 260.77 265.15 266.07 263.67 264.59 258.37 269.88 256.89 268.4 251.59 263.11 253.07 257.81 254.55 256.33 249.26 261.63 247.78 260.15 242.48 254.85 243.96 253.37 238.66 248.07 240.14 249.55 245.44 244.26 246.92"/>
      <path d="M241.3,236.33l-5.3,1.48,1.48,5.3-5.3,1.48-1.48-5.3-5.3,1.48-1.48-5.3,5.3-1.48,1.48,5.3,5.3-1.48-1.48-5.3,5.3-1.48-1.48-5.3-5.3,1.48-5.3,1.48-5.3,1.48-5.3,1.48,1.48,5.3,1.48,5.3-5.3,1.48-5.3,1.48,1.48,5.3-5.3,1.48-5.3,1.48,1.48,5.3,5.3-1.48,1.48,5.3,5.3-1.48,5.3-1.48,5.3-1.48,5.3-1.48,5.3-1.48,5.3-1.48-1.48-5.3,5.3-1.48-1.48-5.3,5.3-1.48-1.48-5.3-1.48-5.3-5.3,1.48,1.48,5.3ZM221.59,247.54l5.3-1.48,1.48,5.3-5.3,1.48-1.48-5.3Z"/>
      <rect x="244.27" y="223.41" width="5.5" height="5.5" transform="translate(-51.75 74.82) rotate(-15.61)"/>
      <rect x="248.09" y="216.64" width="5.5" height="5.5" transform="translate(-49.79 75.6) rotate(-15.61)"/>
      <rect x="262.5" y="206.9" width="5.5" height="5.5" transform="translate(-46.64 79.12) rotate(-15.61)"/>
      <rect x="255.72" y="203.08" width="5.5" height="5.5" transform="translate(-45.86 77.16) rotate(-15.61)"/>
      <rect x="194.27" y="248.81" width="5.5" height="5.5" transform="translate(-60.43 62.3) rotate(-15.61)"/>
      <polygon points="195.11 254.94 189.81 256.42 188.33 251.13 183.03 252.61 184.51 257.9 179.22 259.38 180.7 264.68 175.4 266.16 173.92 260.86 179.22 259.38 177.74 254.09 183.03 252.61 181.55 247.31 186.85 245.83 188.33 251.13 193.63 249.65 192.15 244.35 190.67 239.05 185.37 240.53 180.07 242.01 174.78 243.49 176.26 248.79 170.96 250.27 169.48 244.97 164.19 246.45 158.89 247.93 160.37 253.23 165.67 251.75 167.15 257.05 161.85 258.53 163.33 263.82 164.81 269.12 166.29 274.42 171.59 272.94 176.88 271.46 182.18 269.98 187.47 268.5 192.77 267.02 198.07 265.54 203.36 264.06 201.88 258.76 196.59 260.24 195.11 254.94"/>
      <polygon points="202.74 241.39 208.04 239.91 213.33 238.43 211.85 233.13 206.56 234.61 201.26 236.09 195.96 237.57 197.44 242.87 198.92 248.17 204.22 246.69 202.74 241.39"/>
      <polygon points="233.9 209.84 235.38 215.14 236.86 220.44 238.34 225.73 243.63 224.25 242.15 218.96 247.45 217.48 245.97 212.18 240.67 213.66 239.19 208.36 237.71 203.07 232.42 204.55 233.9 209.84"/>
      <rect x="268.65" y="188.05" width="5.5" height="5.5" transform="translate(-41.34 80.08) rotate(-15.61)"/>
      <rect x="261.87" y="184.23" width="5.5" height="5.5" transform="translate(-40.56 78.12) rotate(-15.61)"/>
      <rect x="243.65" y="200.75" width="5.5" height="5.5" transform="translate(-45.68 73.82) rotate(-15.61)"/>
      <rect x="236.87" y="196.93" width="5.5" height="5.5" transform="translate(-44.9 71.86) rotate(-15.61)"/>
      <rect x="240.69" y="190.15" width="5.5" height="5.5" transform="translate(-42.93 72.63) rotate(-15.61)"/>
      <rect x="244.5" y="183.38" width="5.5" height="5.5" transform="translate(-40.97 73.41) rotate(-15.61)"/>
      <polygon points="227.98 188.66 229.46 193.96 230.94 199.25 236.23 197.77 234.75 192.48 240.05 191 238.57 185.7 233.27 187.18 231.79 181.88 226.5 183.36 227.98 188.66"/>
      <rect x="230.95" y="175.74" width="5.5" height="5.5" transform="translate(-39.42 69.48) rotate(-15.61)"/>
      <rect x="233.29" y="163.67" width="5.5" height="5.5" transform="translate(-36.08 69.66) rotate(-15.61)"/>
      <rect x="246.84" y="171.3" width="5.5" height="5.5" transform="translate(-37.63 73.59) rotate(-15.61)"/>
      <rect x="240.06" y="167.49" width="5.5" height="5.5" transform="translate(-36.86 71.63) rotate(-15.61)"/>
      <rect x="257.43" y="168.34" width="5.5" height="5.5" transform="translate(-36.45 76.33) rotate(-15.61)"/>
      <rect x="250.66" y="164.53" width="5.5" height="5.5" transform="translate(-35.67 74.37) rotate(-15.61)"/>
      <rect x="237.1" y="156.89" width="5.5" height="5.5" transform="translate(-34.12 70.44) rotate(-15.61)"/>
      <path d="M236.46,157.74l-1.48-5.3-5.3,1.48-1.48-5.3,5.3-1.48,5.3-1.48-1.48-5.3-5.3,1.48-1.48-5.3-5.3,1.48-1.48-5.3-5.3,1.48,1.48,5.3,1.48,5.3,1.48,5.3,1.48,5.3-5.3,1.48,1.48,5.3-5.3,1.48-1.48-5.3-5.3,1.48-5.3,1.48-5.3,1.48-5.3,1.48-5.3,1.48,1.48,5.3-5.3,1.48-1.48-5.3-5.3,1.48-5.3,1.48-5.3,1.48-5.3,1.48-5.3,1.48-5.3,1.48-5.3,1.48-5.3,1.48,1.48,5.3,1.48,5.3,1.48,5.3,5.3-1.48-1.48-5.3,5.3-1.48-1.48-5.3,5.3-1.48,1.48,5.3,5.3-1.48-1.48-5.3,5.3-1.48,1.48,5.3,5.3-1.48-1.48-5.3,5.3-1.48,1.48,5.3,5.3-1.48,5.3-1.48,1.48,5.3,1.48,5.3-5.3,1.48-1.48-5.3-5.3,1.48,1.48,5.3-5.3,1.48,1.48,5.3,5.3-1.48,5.3-1.48,5.3-1.48,5.3-1.48,5.3-1.48,5.3-1.48,5.3-1.48,5.3-1.48,5.3-1.48-1.48-5.3-5.3,1.48-1.48-5.3-5.3,1.48,1.48,5.3-5.3,1.48-1.48-5.3,5.3-1.48-1.48-5.3,5.3-1.48,1.48,5.3,5.3-1.48,1.48,5.3,5.3-1.48-1.48-5.3-1.48-5.3,5.3-1.48-1.48-5.3,5.3-1.48ZM203.83,183.99l-5.3,1.48-1.48-5.3,5.3-1.48,1.48,5.3ZM199.39,168.1l5.3-1.48,1.48,5.3-5.3,1.48-1.48-5.3Z"/>
      <rect x="247.7" y="153.93" width="5.5" height="5.5" transform="translate(-32.93 73.18) rotate(-15.61)"/>
      <rect x="175.03" y="179.95" width="5.5" height="5.5" transform="translate(-42.61 54.59) rotate(-15.61)"/>
      <rect x="164.43" y="182.91" width="5.5" height="5.5" transform="translate(-43.8 51.84) rotate(-15.61)"/>
      <polygon points="145.57 200.27 147.05 205.56 152.35 204.08 157.64 202.6 162.94 201.12 168.24 199.64 173.53 198.16 172.05 192.87 166.75 194.35 161.46 195.83 159.98 190.53 158.5 185.23 153.2 186.71 154.68 192.01 149.39 193.49 150.87 198.79 145.57 200.27"/>
      <path d="M262.02,310.48l-1.48-5.3,5.3-1.48-1.48-5.3-5.3,1.48-5.3,1.48-5.3,1.48-5.3,1.48-5.3,1.48,1.48,5.3-5.3,1.48-1.48-5.3-5.3,1.48,1.48,5.3-5.3,1.48-1.48-5.3-5.3,1.48-5.3,1.48-5.3,1.48-5.3,1.48-5.3,1.48-5.3,1.48-5.3,1.48,1.48,5.3-5.3,1.48-1.48-5.3-5.3,1.48-5.3,1.48-5.3,1.48-5.3,1.48-5.3,1.48-5.3,1.48-5.3,1.48-5.3,1.48-5.3,1.48,1.48,5.3-5.3,1.48-1.48-5.3-5.3,1.48-1.48-5.3-1.48-5.3-1.48-5.3-1.48-5.3-1.48-5.3-1.48-5.3-5.3,1.48-1.48-5.3,5.3-1.48-1.48-5.3-1.48-5.3-1.48-5.3-1.48-5.3-1.48-5.3-1.48-5.3-1.48-5.3-1.48-5.3-1.48-5.3-1.48-5.3-5.3,1.48-1.48-5.3,5.3-1.48-1.48-5.3-1.48-5.3-1.48-5.3-1.48-5.3-1.48-5.3-1.48-5.3-1.48-5.3-1.48-5.3-5.3,1.48-1.48-5.3,5.3-1.48-1.48-5.3-1.48-5.3-1.48-5.3-1.48-5.3-1.48-5.3-1.48-5.3-1.48-5.3-5.3,1.48-1.48-5.3,5.3-1.48-1.48-5.3,5.3-1.48-1.48-5.3,5.3-1.48,1.48,5.3,5.3-1.48,5.3-1.48,5.3-1.48,5.3-1.48,5.3-1.48,5.3-1.48,5.3-1.48,5.3-1.48,5.3-1.48-1.48-5.3,5.3-1.48,1.48,5.3,5.3-1.48,5.3-1.48,5.3-1.48,5.3-1.48,5.3-1.48,5.3-1.48,5.3-1.48-1.48-5.3,5.3-1.48,1.48,5.3,5.3-1.48-1.48-5.3,5.3-1.48,1.48,5.3,5.3-1.48,5.3-1.48,5.3-1.48,5.3-1.48,5.3-1.48-1.48-5.3-5.3,1.48-1.48-5.3-1.48-5.3-1.48-5.3-5.3,1.48-5.3,1.48-5.3,1.48,1.48,5.3,5.3-1.48,5.3-1.48,1.48,5.3,1.48,5.3-5.3,1.48-1.48-5.3-5.3,1.48-1.48-5.3-5.3,1.48,1.48,5.3-5.3,1.48-1.48-5.3-5.3,1.48,1.48,5.3-5.3,1.48-5.3,1.48-1.48-5.3,5.3-1.48,5.3-1.48-1.48-5.3-5.3,1.48-5.3,1.48-5.3,1.48,1.48,5.3-5.3,1.48-1.48-5.3-5.3,1.48,1.48,5.3-5.3,1.48-1.48-5.3-5.3,1.48-5.3,1.48-5.3,1.48-5.3,1.48,1.48,5.3,5.3-1.48,1.48,5.3-5.3,1.48,1.48,5.3-5.3,1.48-1.48-5.3-5.3,1.48,1.48,5.3-5.3,1.48-1.48-5.3-5.3,1.48,1.48,5.3-5.3,1.48-1.48-5.3,5.3-1.48-1.48-5.3-5.3,1.48-5.3,1.48,1.48,5.3,1.48,5.3-5.3,1.48-1.48-5.3-1.48-5.3,5.3-1.48-1.48-5.3-5.3,1.48-5.3,1.48,1.48,5.3,1.48,5.3-5.3,1.48-5.3,1.48,1.48,5.3-5.3,1.48,1.48,5.3-5.3,1.48-5.3,1.48-5.3,1.48,1.48,5.3-5.3,1.48,1.48,5.3,1.48,5.3,5.3-1.48-1.48-5.3,5.3-1.48-1.48-5.3,5.3-1.48,1.48,5.3,1.48,5.3-5.3,1.48-5.3,1.48,1.48,5.3,5.3-1.48,1.48,5.3-5.3,1.48,1.48,5.3,1.48,5.3,5.3-1.48-1.48-5.3,5.3-1.48-1.48-5.3-1.48-5.3,5.3-1.48,1.48,5.3,1.48,5.3-5.3,1.48,1.48,5.3,5.3-1.48,1.48,5.3-5.3,1.48,1.48,5.3-5.3,1.48,1.48,5.3,1.48,5.3-5.3,1.48,1.48,5.3,5.3-1.48,1.48,5.3-5.3,1.48,1.48,5.3-5.3,1.48,1.48,5.3,5.3-1.48,5.3-1.48-1.48-5.3,5.3-1.48,5.3-1.48,1.48,5.3-5.3,1.48,1.48,5.3-5.3,1.48-5.3,1.48,1.48,5.3,5.3-1.48,1.48,5.3,1.48,5.3,5.3-1.48,1.48,5.3-5.3,1.48,1.48,5.3,5.3-1.48,1.48,5.3-5.3,1.48-1.48-5.3-5.3,1.48-5.3,1.48,1.48,5.3,5.3-1.48,1.48,5.3,5.3-1.48,1.48,5.3-5.3,1.48,1.48,5.3,5.3-1.48,1.48,5.3,1.48,5.3,5.3-1.48-1.48-5.3,5.3-1.48,1.48,5.3-5.3,1.48,1.48,5.3-5.3,1.48,1.48,5.3,5.3-1.48,1.48,5.3-5.3,1.48-1.48-5.3-5.3,1.48,1.48,5.3,1.48,5.3,5.3-1.48,1.48,5.3-5.3,1.48,1.48,5.3,5.3-1.48,5.3-1.48,1.48,5.3,1.48,5.3-5.3,1.48-1.48-5.3-5.3,1.48-1.48-5.3-5.3,1.48,1.48,5.3,1.48,5.3,5.3-1.48,1.48,5.3,5.3-1.48,5.3-1.48,5.3-1.48,1.48,5.3,5.3-1.48,1.48,5.3,5.3-1.48,5.3-1.48,1.48,5.3,1.48,5.3,5.3-1.48,5.3-1.48-1.48-5.3-5.3,1.48-1.48-5.3-1.48-5.3,5.3-1.48,1.48,5.3,1.48,5.3,5.3-1.48,5.3-1.48-1.48-5.3-5.3,1.48-1.48-5.3,5.3-1.48,1.48,5.3,5.3-1.48-1.48-5.3,5.3-1.48,1.48,5.3,5.3-1.48-1.48-5.3,5.3-1.48,1.48,5.3,5.3-1.48,1.48,5.3-5.3,1.48,1.48,5.3,5.3-1.48,5.3-1.48-1.48-5.3-1.48-5.3,5.3-1.48-1.48-5.3,5.3-1.48,5.3-1.48,1.48,5.3-5.3,1.48-5.3,1.48,1.48,5.3,1.48,5.3,5.3-1.48-1.48-5.3,5.3-1.48,1.48,5.3,5.3-1.48-1.48-5.3,5.3-1.48,1.48,5.3,5.3-1.48,5.3-1.48,5.3-1.48-1.48-5.3-5.3,1.48-5.3,1.48-1.48-5.3,5.3-1.48,5.3-1.48,1.48,5.3,5.3-1.48-1.48-5.3,5.3-1.48,1.48,5.3,5.3-1.48-1.48-5.3,5.3-1.48-1.48-5.3,5.3-1.48,1.48,5.3,1.48,5.3-5.3,1.48-5.3,1.48,1.48,5.3,5.3-1.48,5.3-1.48,5.3-1.48-1.48-5.3-1.48-5.3ZM156.63,117.24l-5.3,1.48-1.48-5.3,5.3-1.48,1.48,5.3ZM146.03,120.2l-5.3,1.48-1.48-5.3,5.3-1.48,1.48,5.3ZM75.23,214.21l5.3-1.48,1.48,5.3-5.3,1.48-1.48-5.3ZM91.51,272.47l5.3-1.48,1.48,5.3-5.3,1.48-1.48-5.3ZM103.35,314.84l5.3-1.48,1.48,5.3-5.3,1.48-1.48-5.3ZM207.57,319.98l5.3-1.48,1.48,5.3-5.3,1.48-1.48-5.3Z"/>
    </g>
  </g>
  <path class="st2" d="M35.55,84.89v3h-6v14.99h-3v-14.99h-6v-3h14.99ZM38.55,84.89h3.75l4.5,7.79,4.5-7.79h3.75v17.99h-3v-13.29l-5.25,9.09-5.25-9.08v13.29h-3v-17.99Z"/>
</svg>